<?xml version="1.0" encoding="utf-8" standalone="no"?>
<!DOCTYPE svg PUBLIC "-//W3C//DTD SVG 1.1//EN"
  "http://www.w3.org/Graphics/SVG/1.1/DTD/svg11.dtd">
<svg xmlns:xlink="http://www.w3.org/1999/xlink" width="792pt" height="396pt" viewBox="0 0 792 396" xmlns="http://www.w3.org/2000/svg" version="1.1">
 <metadata>
  <rdf:RDF xmlns:dc="http://purl.org/dc/elements/1.1/" xmlns:cc="http://creativecommons.org/ns#" xmlns:rdf="http://www.w3.org/1999/02/22-rdf-syntax-ns#">
   <cc:Work>
    <dc:type rdf:resource="http://purl.org/dc/dcmitype/StillImage"/>
    <dc:date>2025-05-17T00:19:54.889880</dc:date>
    <dc:format>image/svg+xml</dc:format>
    <dc:creator>
     <cc:Agent>
      <dc:title>Matplotlib v3.10.1, https://matplotlib.org/</dc:title>
     </cc:Agent>
    </dc:creator>
   </cc:Work>
  </rdf:RDF>
 </metadata>
 <defs>
  <style type="text/css">*{stroke-linejoin: round; stroke-linecap: butt}</style>
 </defs>
 <g id="figure_1">
  <g id="patch_1">
   <path d="M 0 396 
L 792 396 
L 792 0 
L 0 0 
z
" style="fill: #ffffff"/>
  </g>
  <g id="axes_1">
   <g id="patch_2">
    <path d="M 66.62 353.9448 
L 781.2 353.9448 
L 781.2 46.104 
L 66.62 46.104 
z
" style="fill: #ffffff"/>
   </g>
   <g id="patch_3">
    <path d="M 270.053062 353.9448 
L 273.851999 353.9448 
L 273.851999 272.505435 
L 270.053062 272.505435 
z
" clip-path="url(#p4c90302e57)" style="fill: #90ee90"/>
   </g>
   <g id="patch_4">
    <path d="M 274.801733 353.9448 
L 278.60067 353.9448 
L 278.60067 265.588667 
L 274.801733 265.588667 
z
" clip-path="url(#p4c90302e57)" style="fill: #90ee90"/>
   </g>
   <g id="patch_5">
    <path d="M 279.550404 353.9448 
L 283.349341 353.9448 
L 283.349341 258.448777 
L 279.550404 258.448777 
z
" clip-path="url(#p4c90302e57)" style="fill: #90ee90"/>
   </g>
   <g id="patch_6">
    <path d="M 284.299075 353.9448 
L 288.098012 353.9448 
L 288.098012 250.639523 
L 284.299075 250.639523 
z
" clip-path="url(#p4c90302e57)" style="fill: #90ee90"/>
   </g>
   <g id="patch_7">
    <path d="M 289.047746 353.9448 
L 292.846683 353.9448 
L 292.846683 242.830269 
L 289.047746 242.830269 
z
" clip-path="url(#p4c90302e57)" style="fill: #90ee90"/>
   </g>
   <g id="patch_8">
    <path d="M 293.796417 353.9448 
L 297.595354 353.9448 
L 297.595354 234.797893 
L 293.796417 234.797893 
z
" clip-path="url(#p4c90302e57)" style="fill: #90ee90"/>
   </g>
   <g id="patch_9">
    <path d="M 298.545088 353.9448 
L 302.344024 353.9448 
L 302.344024 226.319274 
L 298.545088 226.319274 
z
" clip-path="url(#p4c90302e57)" style="fill: #90ee90"/>
   </g>
   <g id="patch_10">
    <path d="M 303.293759 353.9448 
L 307.092695 353.9448 
L 307.092695 217.840656 
L 303.293759 217.840656 
z
" clip-path="url(#p4c90302e57)" style="fill: #90ee90"/>
   </g>
   <g id="patch_11">
    <path d="M 308.04243 353.9448 
L 311.841366 353.9448 
L 311.841366 209.362037 
L 308.04243 209.362037 
z
" clip-path="url(#p4c90302e57)" style="fill: #90ee90"/>
   </g>
   <g id="patch_12">
    <path d="M 312.7911 353.9448 
L 316.590037 353.9448 
L 316.590037 200.214053 
L 312.7911 200.214053 
z
" clip-path="url(#p4c90302e57)" style="fill: #90ee90"/>
   </g>
   <g id="patch_13">
    <path d="M 317.539771 353.9448 
L 321.338708 353.9448 
L 321.338708 191.512313 
L 317.539771 191.512313 
z
" clip-path="url(#p4c90302e57)" style="fill: #90ee90"/>
   </g>
   <g id="patch_14">
    <path d="M 322.288442 353.9448 
L 326.087379 353.9448 
L 326.087379 182.810573 
L 322.288442 182.810573 
z
" clip-path="url(#p4c90302e57)" style="fill: #90ee90"/>
   </g>
   <g id="patch_15">
    <path d="M 327.037113 353.9448 
L 330.83605 353.9448 
L 330.83605 173.662589 
L 327.037113 173.662589 
z
" clip-path="url(#p4c90302e57)" style="fill: #90ee90"/>
   </g>
   <g id="patch_16">
    <path d="M 331.785784 353.9448 
L 335.584721 353.9448 
L 335.584721 164.737727 
L 331.785784 164.737727 
z
" clip-path="url(#p4c90302e57)" style="fill: #90ee90"/>
   </g>
   <g id="patch_17">
    <path d="M 336.534455 353.9448 
L 340.333392 353.9448 
L 340.333392 156.035987 
L 336.534455 156.035987 
z
" clip-path="url(#p4c90302e57)" style="fill: #90ee90"/>
   </g>
   <g id="patch_18">
    <path d="M 341.283126 353.9448 
L 345.082063 353.9448 
L 345.082063 147.111125 
L 341.283126 147.111125 
z
" clip-path="url(#p4c90302e57)" style="fill: #90ee90"/>
   </g>
   <g id="patch_19">
    <path d="M 346.031797 353.9448 
L 349.830734 353.9448 
L 349.830734 138.632506 
L 346.031797 138.632506 
z
" clip-path="url(#p4c90302e57)" style="fill: #90ee90"/>
   </g>
   <g id="patch_20">
    <path d="M 350.780468 353.9448 
L 354.579405 353.9448 
L 354.579405 130.60013 
L 350.780468 130.60013 
z
" clip-path="url(#p4c90302e57)" style="fill: #90ee90"/>
   </g>
   <g id="patch_21">
    <path d="M 355.529139 353.9448 
L 359.328075 353.9448 
L 359.328075 122.344633 
L 355.529139 122.344633 
z
" clip-path="url(#p4c90302e57)" style="fill: #90ee90"/>
   </g>
   <g id="patch_22">
    <path d="M 360.27781 353.9448 
L 364.076746 353.9448 
L 364.076746 114.535379 
L 360.27781 114.535379 
z
" clip-path="url(#p4c90302e57)" style="fill: #90ee90"/>
   </g>
   <g id="patch_23">
    <path d="M 365.026481 353.9448 
L 368.825417 353.9448 
L 368.825417 107.395489 
L 365.026481 107.395489 
z
" clip-path="url(#p4c90302e57)" style="fill: #90ee90"/>
   </g>
   <g id="patch_24">
    <path d="M 369.775152 353.9448 
L 373.574088 353.9448 
L 373.574088 100.2556 
L 369.775152 100.2556 
z
" clip-path="url(#p4c90302e57)" style="fill: #90ee90"/>
   </g>
   <g id="patch_25">
    <path d="M 374.523822 353.9448 
L 378.322759 353.9448 
L 378.322759 93.785075 
L 374.523822 93.785075 
z
" clip-path="url(#p4c90302e57)" style="fill: #90ee90"/>
   </g>
   <g id="patch_26">
    <path d="M 379.272493 353.9448 
L 383.07143 353.9448 
L 383.07143 87.983915 
L 379.272493 87.983915 
z
" clip-path="url(#p4c90302e57)" style="fill: #90ee90"/>
   </g>
   <g id="patch_27">
    <path d="M 384.021164 353.9448 
L 387.820101 353.9448 
L 387.820101 82.182754 
L 384.021164 82.182754 
z
" clip-path="url(#p4c90302e57)" style="fill: #90ee90"/>
   </g>
   <g id="patch_28">
    <path d="M 388.769835 353.9448 
L 392.568772 353.9448 
L 392.568772 77.27408 
L 388.769835 77.27408 
z
" clip-path="url(#p4c90302e57)" style="fill: #90ee90"/>
   </g>
   <g id="patch_29">
    <path d="M 393.518506 353.9448 
L 397.317443 353.9448 
L 397.317443 73.257892 
L 393.518506 73.257892 
z
" clip-path="url(#p4c90302e57)" style="fill: #90ee90"/>
   </g>
   <g id="patch_30">
    <path d="M 398.267177 353.9448 
L 402.066114 353.9448 
L 402.066114 69.241705 
L 398.267177 69.241705 
z
" clip-path="url(#p4c90302e57)" style="fill: #90ee90"/>
   </g>
   <g id="patch_31">
    <path d="M 403.015848 353.9448 
L 406.814785 353.9448 
L 406.814785 66.118003 
L 403.015848 66.118003 
z
" clip-path="url(#p4c90302e57)" style="fill: #90ee90"/>
   </g>
   <g id="patch_32">
    <path d="M 407.764519 353.9448 
L 411.563456 353.9448 
L 411.563456 63.886787 
L 407.764519 63.886787 
z
" clip-path="url(#p4c90302e57)" style="fill: #90ee90"/>
   </g>
   <g id="patch_33">
    <path d="M 412.51319 353.9448 
L 416.312127 353.9448 
L 416.312127 61.878693 
L 412.51319 61.878693 
z
" clip-path="url(#p4c90302e57)" style="fill: #90ee90"/>
   </g>
   <g id="patch_34">
    <path d="M 417.261861 353.9448 
L 421.060797 353.9448 
L 421.060797 60.986207 
L 417.261861 60.986207 
z
" clip-path="url(#p4c90302e57)" style="fill: #90ee90"/>
   </g>
   <g id="patch_35">
    <path d="M 422.010532 353.9448 
L 425.809468 353.9448 
L 425.809468 60.763086 
L 422.010532 60.763086 
z
" clip-path="url(#p4c90302e57)" style="fill: #90ee90"/>
   </g>
   <g id="patch_36">
    <path d="M 426.759203 353.9448 
L 430.558139 353.9448 
L 430.558139 60.986207 
L 426.759203 60.986207 
z
" clip-path="url(#p4c90302e57)" style="fill: #90ee90"/>
   </g>
   <g id="patch_37">
    <path d="M 431.507873 353.9448 
L 435.30681 353.9448 
L 435.30681 61.878693 
L 431.507873 61.878693 
z
" clip-path="url(#p4c90302e57)" style="fill: #90ee90"/>
   </g>
   <g id="patch_38">
    <path d="M 436.256544 353.9448 
L 440.055481 353.9448 
L 440.055481 63.886787 
L 436.256544 63.886787 
z
" clip-path="url(#p4c90302e57)" style="fill: #90ee90"/>
   </g>
   <g id="patch_39">
    <path d="M 441.005215 353.9448 
L 444.804152 353.9448 
L 444.804152 66.118003 
L 441.005215 66.118003 
z
" clip-path="url(#p4c90302e57)" style="fill: #90ee90"/>
   </g>
   <g id="patch_40">
    <path d="M 445.753886 353.9448 
L 449.552823 353.9448 
L 449.552823 69.241705 
L 445.753886 69.241705 
z
" clip-path="url(#p4c90302e57)" style="fill: #90ee90"/>
   </g>
   <g id="patch_41">
    <path d="M 450.502557 353.9448 
L 454.301494 353.9448 
L 454.301494 73.257892 
L 450.502557 73.257892 
z
" clip-path="url(#p4c90302e57)" style="fill: #90ee90"/>
   </g>
   <g id="patch_42">
    <path d="M 455.251228 353.9448 
L 459.050165 353.9448 
L 459.050165 77.27408 
L 455.251228 77.27408 
z
" clip-path="url(#p4c90302e57)" style="fill: #90ee90"/>
   </g>
   <g id="patch_43">
    <path d="M 459.999899 353.9448 
L 463.798836 353.9448 
L 463.798836 82.182754 
L 459.999899 82.182754 
z
" clip-path="url(#p4c90302e57)" style="fill: #90ee90"/>
   </g>
   <g id="patch_44">
    <path d="M 464.74857 353.9448 
L 468.547507 353.9448 
L 468.547507 87.983915 
L 464.74857 87.983915 
z
" clip-path="url(#p4c90302e57)" style="fill: #90ee90"/>
   </g>
   <g id="patch_45">
    <path d="M 469.497241 353.9448 
L 473.296178 353.9448 
L 473.296178 93.785075 
L 469.497241 93.785075 
z
" clip-path="url(#p4c90302e57)" style="fill: #90ee90"/>
   </g>
   <g id="patch_46">
    <path d="M 474.245912 353.9448 
L 478.044848 353.9448 
L 478.044848 100.2556 
L 474.245912 100.2556 
z
" clip-path="url(#p4c90302e57)" style="fill: #90ee90"/>
   </g>
   <g id="patch_47">
    <path d="M 478.994583 353.9448 
L 482.793519 353.9448 
L 482.793519 107.395489 
L 478.994583 107.395489 
z
" clip-path="url(#p4c90302e57)" style="fill: #90ee90"/>
   </g>
   <g id="patch_48">
    <path d="M 483.743254 353.9448 
L 487.54219 353.9448 
L 487.54219 114.535379 
L 483.743254 114.535379 
z
" clip-path="url(#p4c90302e57)" style="fill: #90ee90"/>
   </g>
   <g id="patch_49">
    <path d="M 488.491925 353.9448 
L 492.290861 353.9448 
L 492.290861 122.344633 
L 488.491925 122.344633 
z
" clip-path="url(#p4c90302e57)" style="fill: #90ee90"/>
   </g>
   <g id="patch_50">
    <path d="M 493.240595 353.9448 
L 497.039532 353.9448 
L 497.039532 130.60013 
L 493.240595 130.60013 
z
" clip-path="url(#p4c90302e57)" style="fill: #90ee90"/>
   </g>
   <g id="patch_51">
    <path d="M 497.989266 353.9448 
L 501.788203 353.9448 
L 501.788203 138.632506 
L 497.989266 138.632506 
z
" clip-path="url(#p4c90302e57)" style="fill: #90ee90"/>
   </g>
   <g id="patch_52">
    <path d="M 502.737937 353.9448 
L 506.536874 353.9448 
L 506.536874 147.111125 
L 502.737937 147.111125 
z
" clip-path="url(#p4c90302e57)" style="fill: #90ee90"/>
   </g>
   <g id="patch_53">
    <path d="M 507.486608 353.9448 
L 511.285545 353.9448 
L 511.285545 156.035987 
L 507.486608 156.035987 
z
" clip-path="url(#p4c90302e57)" style="fill: #90ee90"/>
   </g>
   <g id="patch_54">
    <path d="M 512.235279 353.9448 
L 516.034216 353.9448 
L 516.034216 164.737727 
L 512.235279 164.737727 
z
" clip-path="url(#p4c90302e57)" style="fill: #90ee90"/>
   </g>
   <g id="patch_55">
    <path d="M 516.98395 353.9448 
L 520.782887 353.9448 
L 520.782887 173.662589 
L 516.98395 173.662589 
z
" clip-path="url(#p4c90302e57)" style="fill: #90ee90"/>
   </g>
   <g id="patch_56">
    <path d="M 521.732621 353.9448 
L 525.531558 353.9448 
L 525.531558 182.810573 
L 521.732621 182.810573 
z
" clip-path="url(#p4c90302e57)" style="fill: #90ee90"/>
   </g>
   <g id="patch_57">
    <path d="M 526.481292 353.9448 
L 530.280229 353.9448 
L 530.280229 191.512313 
L 526.481292 191.512313 
z
" clip-path="url(#p4c90302e57)" style="fill: #90ee90"/>
   </g>
   <g id="patch_58">
    <path d="M 531.229963 353.9448 
L 535.0289 353.9448 
L 535.0289 200.214053 
L 531.229963 200.214053 
z
" clip-path="url(#p4c90302e57)" style="fill: #90ee90"/>
   </g>
   <g id="patch_59">
    <path d="M 535.978634 353.9448 
L 539.77757 353.9448 
L 539.77757 209.362037 
L 535.978634 209.362037 
z
" clip-path="url(#p4c90302e57)" style="fill: #90ee90"/>
   </g>
   <g id="patch_60">
    <path d="M 540.727305 353.9448 
L 544.526241 353.9448 
L 544.526241 217.840656 
L 540.727305 217.840656 
z
" clip-path="url(#p4c90302e57)" style="fill: #90ee90"/>
   </g>
   <g id="patch_61">
    <path d="M 545.475976 353.9448 
L 549.274912 353.9448 
L 549.274912 226.319274 
L 545.475976 226.319274 
z
" clip-path="url(#p4c90302e57)" style="fill: #90ee90"/>
   </g>
   <g id="patch_62">
    <path d="M 550.224646 353.9448 
L 554.023583 353.9448 
L 554.023583 234.797893 
L 550.224646 234.797893 
z
" clip-path="url(#p4c90302e57)" style="fill: #90ee90"/>
   </g>
   <g id="patch_63">
    <path d="M 554.973317 353.9448 
L 558.772254 353.9448 
L 558.772254 242.830269 
L 554.973317 242.830269 
z
" clip-path="url(#p4c90302e57)" style="fill: #90ee90"/>
   </g>
   <g id="patch_64">
    <path d="M 559.721988 353.9448 
L 563.520925 353.9448 
L 563.520925 250.639523 
L 559.721988 250.639523 
z
" clip-path="url(#p4c90302e57)" style="fill: #90ee90"/>
   </g>
   <g id="patch_65">
    <path d="M 564.470659 353.9448 
L 568.269596 353.9448 
L 568.269596 258.448777 
L 564.470659 258.448777 
z
" clip-path="url(#p4c90302e57)" style="fill: #90ee90"/>
   </g>
   <g id="patch_66">
    <path d="M 569.21933 353.9448 
L 573.018267 353.9448 
L 573.018267 265.588667 
L 569.21933 265.588667 
z
" clip-path="url(#p4c90302e57)" style="fill: #90ee90"/>
   </g>
   <g id="patch_67">
    <path d="M 573.968001 353.9448 
L 577.766938 353.9448 
L 577.766938 272.505435 
L 573.968001 272.505435 
z
" clip-path="url(#p4c90302e57)" style="fill: #90ee90"/>
   </g>
   <g id="patch_68">
    <path d="M 99.100909 353.9448 
L 102.899846 353.9448 
L 102.899846 353.721678 
L 99.100909 353.721678 
z
" clip-path="url(#p4c90302e57)" style="fill: #fa8072"/>
   </g>
   <g id="patch_69">
    <path d="M 103.84958 353.9448 
L 107.648517 353.9448 
L 107.648517 353.721678 
L 103.84958 353.721678 
z
" clip-path="url(#p4c90302e57)" style="fill: #fa8072"/>
   </g>
   <g id="patch_70">
    <path d="M 108.598251 353.9448 
L 112.397188 353.9448 
L 112.397188 353.721678 
L 108.598251 353.721678 
z
" clip-path="url(#p4c90302e57)" style="fill: #fa8072"/>
   </g>
   <g id="patch_71">
    <path d="M 113.346922 353.9448 
L 117.145859 353.9448 
L 117.145859 353.498557 
L 113.346922 353.498557 
z
" clip-path="url(#p4c90302e57)" style="fill: #fa8072"/>
   </g>
   <g id="patch_72">
    <path d="M 118.095593 353.9448 
L 121.89453 353.9448 
L 121.89453 353.498557 
L 118.095593 353.498557 
z
" clip-path="url(#p4c90302e57)" style="fill: #fa8072"/>
   </g>
   <g id="patch_73">
    <path d="M 122.844264 353.9448 
L 126.6432 353.9448 
L 126.6432 353.275435 
L 122.844264 353.275435 
z
" clip-path="url(#p4c90302e57)" style="fill: #fa8072"/>
   </g>
   <g id="patch_74">
    <path d="M 127.592935 353.9448 
L 131.391871 353.9448 
L 131.391871 353.052314 
L 127.592935 353.052314 
z
" clip-path="url(#p4c90302e57)" style="fill: #fa8072"/>
   </g>
   <g id="patch_75">
    <path d="M 132.341606 353.9448 
L 136.140542 353.9448 
L 136.140542 352.829192 
L 132.341606 352.829192 
z
" clip-path="url(#p4c90302e57)" style="fill: #fa8072"/>
   </g>
   <g id="patch_76">
    <path d="M 137.090276 353.9448 
L 140.889213 353.9448 
L 140.889213 352.606071 
L 137.090276 352.606071 
z
" clip-path="url(#p4c90302e57)" style="fill: #fa8072"/>
   </g>
   <g id="patch_77">
    <path d="M 141.838947 353.9448 
L 145.637884 353.9448 
L 145.637884 352.159828 
L 141.838947 352.159828 
z
" clip-path="url(#p4c90302e57)" style="fill: #fa8072"/>
   </g>
   <g id="patch_78">
    <path d="M 146.587618 353.9448 
L 150.386555 353.9448 
L 150.386555 351.713585 
L 146.587618 351.713585 
z
" clip-path="url(#p4c90302e57)" style="fill: #fa8072"/>
   </g>
   <g id="patch_79">
    <path d="M 151.336289 353.9448 
L 155.135226 353.9448 
L 155.135226 351.267341 
L 151.336289 351.267341 
z
" clip-path="url(#p4c90302e57)" style="fill: #fa8072"/>
   </g>
   <g id="patch_80">
    <path d="M 156.08496 353.9448 
L 159.883897 353.9448 
L 159.883897 350.597977 
L 156.08496 350.597977 
z
" clip-path="url(#p4c90302e57)" style="fill: #fa8072"/>
   </g>
   <g id="patch_81">
    <path d="M 160.833631 353.9448 
L 164.632568 353.9448 
L 164.632568 349.928612 
L 160.833631 349.928612 
z
" clip-path="url(#p4c90302e57)" style="fill: #fa8072"/>
   </g>
   <g id="patch_82">
    <path d="M 165.582302 353.9448 
L 169.381239 353.9448 
L 169.381239 349.036126 
L 165.582302 349.036126 
z
" clip-path="url(#p4c90302e57)" style="fill: #fa8072"/>
   </g>
   <g id="patch_83">
    <path d="M 170.330973 353.9448 
L 174.12991 353.9448 
L 174.12991 347.920518 
L 170.330973 347.920518 
z
" clip-path="url(#p4c90302e57)" style="fill: #fa8072"/>
   </g>
   <g id="patch_84">
    <path d="M 175.079644 353.9448 
L 178.878581 353.9448 
L 178.878581 346.80491 
L 175.079644 346.80491 
z
" clip-path="url(#p4c90302e57)" style="fill: #fa8072"/>
   </g>
   <g id="patch_85">
    <path d="M 179.828315 353.9448 
L 183.627251 353.9448 
L 183.627251 345.689303 
L 179.828315 345.689303 
z
" clip-path="url(#p4c90302e57)" style="fill: #fa8072"/>
   </g>
   <g id="patch_86">
    <path d="M 184.576986 353.9448 
L 188.375922 353.9448 
L 188.375922 344.127452 
L 184.576986 344.127452 
z
" clip-path="url(#p4c90302e57)" style="fill: #fa8072"/>
   </g>
   <g id="patch_87">
    <path d="M 189.325657 353.9448 
L 193.124593 353.9448 
L 193.124593 342.565601 
L 189.325657 342.565601 
z
" clip-path="url(#p4c90302e57)" style="fill: #fa8072"/>
   </g>
   <g id="patch_88">
    <path d="M 194.074327 353.9448 
L 197.873264 353.9448 
L 197.873264 340.780629 
L 194.074327 340.780629 
z
" clip-path="url(#p4c90302e57)" style="fill: #fa8072"/>
   </g>
   <g id="patch_89">
    <path d="M 198.822998 353.9448 
L 202.621935 353.9448 
L 202.621935 338.549413 
L 198.822998 338.549413 
z
" clip-path="url(#p4c90302e57)" style="fill: #fa8072"/>
   </g>
   <g id="patch_90">
    <path d="M 203.571669 353.9448 
L 207.370606 353.9448 
L 207.370606 336.318198 
L 203.571669 336.318198 
z
" clip-path="url(#p4c90302e57)" style="fill: #fa8072"/>
   </g>
   <g id="patch_91">
    <path d="M 208.32034 353.9448 
L 212.119277 353.9448 
L 212.119277 333.863861 
L 208.32034 333.863861 
z
" clip-path="url(#p4c90302e57)" style="fill: #fa8072"/>
   </g>
   <g id="patch_92">
    <path d="M 213.069011 353.9448 
L 216.867948 353.9448 
L 216.867948 330.963281 
L 213.069011 330.963281 
z
" clip-path="url(#p4c90302e57)" style="fill: #fa8072"/>
   </g>
   <g id="patch_93">
    <path d="M 217.817682 353.9448 
L 221.616619 353.9448 
L 221.616619 327.839579 
L 217.817682 327.839579 
z
" clip-path="url(#p4c90302e57)" style="fill: #fa8072"/>
   </g>
   <g id="patch_94">
    <path d="M 222.566353 353.9448 
L 226.36529 353.9448 
L 226.36529 324.492756 
L 222.566353 324.492756 
z
" clip-path="url(#p4c90302e57)" style="fill: #fa8072"/>
   </g>
   <g id="patch_95">
    <path d="M 227.315024 353.9448 
L 231.113961 353.9448 
L 231.113961 320.699689 
L 227.315024 320.699689 
z
" clip-path="url(#p4c90302e57)" style="fill: #fa8072"/>
   </g>
   <g id="patch_96">
    <path d="M 232.063695 353.9448 
L 235.862632 353.9448 
L 235.862632 316.683501 
L 232.063695 316.683501 
z
" clip-path="url(#p4c90302e57)" style="fill: #fa8072"/>
   </g>
   <g id="patch_97">
    <path d="M 236.812366 353.9448 
L 240.611302 353.9448 
L 240.611302 312.444192 
L 236.812366 312.444192 
z
" clip-path="url(#p4c90302e57)" style="fill: #fa8072"/>
   </g>
   <g id="patch_98">
    <path d="M 241.561037 353.9448 
L 245.359973 353.9448 
L 245.359973 307.535518 
L 241.561037 307.535518 
z
" clip-path="url(#p4c90302e57)" style="fill: #fa8072"/>
   </g>
   <g id="patch_99">
    <path d="M 246.309708 353.9448 
L 250.108644 353.9448 
L 250.108644 302.626844 
L 246.309708 302.626844 
z
" clip-path="url(#p4c90302e57)" style="fill: #fa8072"/>
   </g>
   <g id="patch_100">
    <path d="M 251.058379 353.9448 
L 254.857315 353.9448 
L 254.857315 297.495048 
L 251.058379 297.495048 
z
" clip-path="url(#p4c90302e57)" style="fill: #fa8072"/>
   </g>
   <g id="patch_101">
    <path d="M 255.807049 353.9448 
L 259.605986 353.9448 
L 259.605986 291.693888 
L 255.807049 291.693888 
z
" clip-path="url(#p4c90302e57)" style="fill: #fa8072"/>
   </g>
   <g id="patch_102">
    <path d="M 260.55572 353.9448 
L 264.354657 353.9448 
L 264.354657 285.669606 
L 260.55572 285.669606 
z
" clip-path="url(#p4c90302e57)" style="fill: #fa8072"/>
   </g>
   <g id="patch_103">
    <path d="M 265.304391 353.9448 
L 269.103328 353.9448 
L 269.103328 279.422203 
L 265.304391 279.422203 
z
" clip-path="url(#p4c90302e57)" style="fill: #fa8072"/>
   </g>
   <g id="patch_104">
    <path d="M 578.716672 353.9448 
L 582.515609 353.9448 
L 582.515609 279.422203 
L 578.716672 279.422203 
z
" clip-path="url(#p4c90302e57)" style="fill: #fa8072"/>
   </g>
   <g id="patch_105">
    <path d="M 583.465343 353.9448 
L 587.26428 353.9448 
L 587.26428 285.669606 
L 583.465343 285.669606 
z
" clip-path="url(#p4c90302e57)" style="fill: #fa8072"/>
   </g>
   <g id="patch_106">
    <path d="M 588.214014 353.9448 
L 592.012951 353.9448 
L 592.012951 291.693888 
L 588.214014 291.693888 
z
" clip-path="url(#p4c90302e57)" style="fill: #fa8072"/>
   </g>
   <g id="patch_107">
    <path d="M 592.962685 353.9448 
L 596.761621 353.9448 
L 596.761621 297.495048 
L 592.962685 297.495048 
z
" clip-path="url(#p4c90302e57)" style="fill: #fa8072"/>
   </g>
   <g id="patch_108">
    <path d="M 597.711356 353.9448 
L 601.510292 353.9448 
L 601.510292 302.626844 
L 597.711356 302.626844 
z
" clip-path="url(#p4c90302e57)" style="fill: #fa8072"/>
   </g>
   <g id="patch_109">
    <path d="M 602.460027 353.9448 
L 606.258963 353.9448 
L 606.258963 307.535518 
L 602.460027 307.535518 
z
" clip-path="url(#p4c90302e57)" style="fill: #fa8072"/>
   </g>
   <g id="patch_110">
    <path d="M 607.208698 353.9448 
L 611.007634 353.9448 
L 611.007634 312.444192 
L 607.208698 312.444192 
z
" clip-path="url(#p4c90302e57)" style="fill: #fa8072"/>
   </g>
   <g id="patch_111">
    <path d="M 611.957368 353.9448 
L 615.756305 353.9448 
L 615.756305 316.683501 
L 611.957368 316.683501 
z
" clip-path="url(#p4c90302e57)" style="fill: #fa8072"/>
   </g>
   <g id="patch_112">
    <path d="M 616.706039 353.9448 
L 620.504976 353.9448 
L 620.504976 320.699689 
L 616.706039 320.699689 
z
" clip-path="url(#p4c90302e57)" style="fill: #fa8072"/>
   </g>
   <g id="patch_113">
    <path d="M 621.45471 353.9448 
L 625.253647 353.9448 
L 625.253647 324.492756 
L 621.45471 324.492756 
z
" clip-path="url(#p4c90302e57)" style="fill: #fa8072"/>
   </g>
   <g id="patch_114">
    <path d="M 626.203381 353.9448 
L 630.002318 353.9448 
L 630.002318 327.839579 
L 626.203381 327.839579 
z
" clip-path="url(#p4c90302e57)" style="fill: #fa8072"/>
   </g>
   <g id="patch_115">
    <path d="M 630.952052 353.9448 
L 634.750989 353.9448 
L 634.750989 330.963281 
L 630.952052 330.963281 
z
" clip-path="url(#p4c90302e57)" style="fill: #fa8072"/>
   </g>
   <g id="patch_116">
    <path d="M 635.700723 353.9448 
L 639.49966 353.9448 
L 639.49966 333.863861 
L 635.700723 333.863861 
z
" clip-path="url(#p4c90302e57)" style="fill: #fa8072"/>
   </g>
   <g id="patch_117">
    <path d="M 640.449394 353.9448 
L 644.248331 353.9448 
L 644.248331 336.318198 
L 640.449394 336.318198 
z
" clip-path="url(#p4c90302e57)" style="fill: #fa8072"/>
   </g>
   <g id="patch_118">
    <path d="M 645.198065 353.9448 
L 648.997002 353.9448 
L 648.997002 338.549413 
L 645.198065 338.549413 
z
" clip-path="url(#p4c90302e57)" style="fill: #fa8072"/>
   </g>
   <g id="patch_119">
    <path d="M 649.946736 353.9448 
L 653.745673 353.9448 
L 653.745673 340.780629 
L 649.946736 340.780629 
z
" clip-path="url(#p4c90302e57)" style="fill: #fa8072"/>
   </g>
   <g id="patch_120">
    <path d="M 654.695407 353.9448 
L 658.494343 353.9448 
L 658.494343 342.565601 
L 654.695407 342.565601 
z
" clip-path="url(#p4c90302e57)" style="fill: #fa8072"/>
   </g>
   <g id="patch_121">
    <path d="M 659.444078 353.9448 
L 663.243014 353.9448 
L 663.243014 344.127452 
L 659.444078 344.127452 
z
" clip-path="url(#p4c90302e57)" style="fill: #fa8072"/>
   </g>
   <g id="patch_122">
    <path d="M 664.192749 353.9448 
L 667.991685 353.9448 
L 667.991685 345.689303 
L 664.192749 345.689303 
z
" clip-path="url(#p4c90302e57)" style="fill: #fa8072"/>
   </g>
   <g id="patch_123">
    <path d="M 668.941419 353.9448 
L 672.740356 353.9448 
L 672.740356 346.80491 
L 668.941419 346.80491 
z
" clip-path="url(#p4c90302e57)" style="fill: #fa8072"/>
   </g>
   <g id="patch_124">
    <path d="M 673.69009 353.9448 
L 677.489027 353.9448 
L 677.489027 347.920518 
L 673.69009 347.920518 
z
" clip-path="url(#p4c90302e57)" style="fill: #fa8072"/>
   </g>
   <g id="patch_125">
    <path d="M 678.438761 353.9448 
L 682.237698 353.9448 
L 682.237698 349.036126 
L 678.438761 349.036126 
z
" clip-path="url(#p4c90302e57)" style="fill: #fa8072"/>
   </g>
   <g id="patch_126">
    <path d="M 683.187432 353.9448 
L 686.986369 353.9448 
L 686.986369 349.928612 
L 683.187432 349.928612 
z
" clip-path="url(#p4c90302e57)" style="fill: #fa8072"/>
   </g>
   <g id="patch_127">
    <path d="M 687.936103 353.9448 
L 691.73504 353.9448 
L 691.73504 350.597977 
L 687.936103 350.597977 
z
" clip-path="url(#p4c90302e57)" style="fill: #fa8072"/>
   </g>
   <g id="patch_128">
    <path d="M 692.684774 353.9448 
L 696.483711 353.9448 
L 696.483711 351.267341 
L 692.684774 351.267341 
z
" clip-path="url(#p4c90302e57)" style="fill: #fa8072"/>
   </g>
   <g id="patch_129">
    <path d="M 697.433445 353.9448 
L 701.232382 353.9448 
L 701.232382 351.713585 
L 697.433445 351.713585 
z
" clip-path="url(#p4c90302e57)" style="fill: #fa8072"/>
   </g>
   <g id="patch_130">
    <path d="M 702.182116 353.9448 
L 705.981053 353.9448 
L 705.981053 352.159828 
L 702.182116 352.159828 
z
" clip-path="url(#p4c90302e57)" style="fill: #fa8072"/>
   </g>
   <g id="patch_131">
    <path d="M 706.930787 353.9448 
L 710.729724 353.9448 
L 710.729724 352.606071 
L 706.930787 352.606071 
z
" clip-path="url(#p4c90302e57)" style="fill: #fa8072"/>
   </g>
   <g id="patch_132">
    <path d="M 711.679458 353.9448 
L 715.478394 353.9448 
L 715.478394 352.829192 
L 711.679458 352.829192 
z
" clip-path="url(#p4c90302e57)" style="fill: #fa8072"/>
   </g>
   <g id="patch_133">
    <path d="M 716.428129 353.9448 
L 720.227065 353.9448 
L 720.227065 353.052314 
L 716.428129 353.052314 
z
" clip-path="url(#p4c90302e57)" style="fill: #fa8072"/>
   </g>
   <g id="patch_134">
    <path d="M 721.1768 353.9448 
L 724.975736 353.9448 
L 724.975736 353.275435 
L 721.1768 353.275435 
z
" clip-path="url(#p4c90302e57)" style="fill: #fa8072"/>
   </g>
   <g id="patch_135">
    <path d="M 725.92547 353.9448 
L 729.724407 353.9448 
L 729.724407 353.498557 
L 725.92547 353.498557 
z
" clip-path="url(#p4c90302e57)" style="fill: #fa8072"/>
   </g>
   <g id="patch_136">
    <path d="M 730.674141 353.9448 
L 734.473078 353.9448 
L 734.473078 353.498557 
L 730.674141 353.498557 
z
" clip-path="url(#p4c90302e57)" style="fill: #fa8072"/>
   </g>
   <g id="patch_137">
    <path d="M 735.422812 353.9448 
L 739.221749 353.9448 
L 739.221749 353.721678 
L 735.422812 353.721678 
z
" clip-path="url(#p4c90302e57)" style="fill: #fa8072"/>
   </g>
   <g id="patch_138">
    <path d="M 740.171483 353.9448 
L 743.97042 353.9448 
L 743.97042 353.721678 
L 740.171483 353.721678 
z
" clip-path="url(#p4c90302e57)" style="fill: #fa8072"/>
   </g>
   <g id="patch_139">
    <path d="M 744.920154 353.9448 
L 748.719091 353.9448 
L 748.719091 353.721678 
L 744.920154 353.721678 
z
" clip-path="url(#p4c90302e57)" style="fill: #fa8072"/>
   </g>
   <g id="matplotlib.axis_1">
    <g id="xtick_1">
     <g id="line2d_1">
      <defs>
       <path id="m4a088978d5" d="M 0 0 
L 0 3.5 
" style="stroke: #000000; stroke-width: 0.8"/>
      </defs>
      <g>
       <use xlink:href="#m4a088978d5" x="101.000377" y="353.9448" style="stroke: #000000; stroke-width: 0.8"/>
      </g>
     </g>
     <g id="text_1">
      <!-- 0 -->
      <g transform="translate(97.819127 368.543238) scale(0.1 -0.1)">
       <defs>
        <path id="DejaVuSans-30" d="M 2034 4250 
Q 1547 4250 1301 3770 
Q 1056 3291 1056 2328 
Q 1056 1369 1301 889 
Q 1547 409 2034 409 
Q 2525 409 2770 889 
Q 3016 1369 3016 2328 
Q 3016 3291 2770 3770 
Q 2525 4250 2034 4250 
z
M 2034 4750 
Q 2819 4750 3233 4129 
Q 3647 3509 3647 2328 
Q 3647 1150 3233 529 
Q 2819 -91 2034 -91 
Q 1250 -91 836 529 
Q 422 1150 422 2328 
Q 422 3509 836 4129 
Q 1250 4750 2034 4750 
z
" transform="scale(0.015625)"/>
       </defs>
       <use xlink:href="#DejaVuSans-30"/>
      </g>
     </g>
    </g>
    <g id="xtick_2">
     <g id="line2d_2">
      <g>
       <use xlink:href="#m4a088978d5" x="195.973796" y="353.9448" style="stroke: #000000; stroke-width: 0.8"/>
      </g>
     </g>
     <g id="text_2">
      <!-- 20 -->
      <g transform="translate(189.611296 368.543238) scale(0.1 -0.1)">
       <defs>
        <path id="DejaVuSans-32" d="M 1228 531 
L 3431 531 
L 3431 0 
L 469 0 
L 469 531 
Q 828 903 1448 1529 
Q 2069 2156 2228 2338 
Q 2531 2678 2651 2914 
Q 2772 3150 2772 3378 
Q 2772 3750 2511 3984 
Q 2250 4219 1831 4219 
Q 1534 4219 1204 4116 
Q 875 4013 500 3803 
L 500 4441 
Q 881 4594 1212 4672 
Q 1544 4750 1819 4750 
Q 2544 4750 2975 4387 
Q 3406 4025 3406 3419 
Q 3406 3131 3298 2873 
Q 3191 2616 2906 2266 
Q 2828 2175 2409 1742 
Q 1991 1309 1228 531 
z
" transform="scale(0.015625)"/>
       </defs>
       <use xlink:href="#DejaVuSans-32"/>
       <use xlink:href="#DejaVuSans-30" transform="translate(63.623047 0)"/>
      </g>
     </g>
    </g>
    <g id="xtick_3">
     <g id="line2d_3">
      <g>
       <use xlink:href="#m4a088978d5" x="290.947214" y="353.9448" style="stroke: #000000; stroke-width: 0.8"/>
      </g>
     </g>
     <g id="text_3">
      <!-- 40 -->
      <g transform="translate(284.584714 368.543238) scale(0.1 -0.1)">
       <defs>
        <path id="DejaVuSans-34" d="M 2419 4116 
L 825 1625 
L 2419 1625 
L 2419 4116 
z
M 2253 4666 
L 3047 4666 
L 3047 1625 
L 3713 1625 
L 3713 1100 
L 3047 1100 
L 3047 0 
L 2419 0 
L 2419 1100 
L 313 1100 
L 313 1709 
L 2253 4666 
z
" transform="scale(0.015625)"/>
       </defs>
       <use xlink:href="#DejaVuSans-34"/>
       <use xlink:href="#DejaVuSans-30" transform="translate(63.623047 0)"/>
      </g>
     </g>
    </g>
    <g id="xtick_4">
     <g id="line2d_4">
      <g>
       <use xlink:href="#m4a088978d5" x="385.920633" y="353.9448" style="stroke: #000000; stroke-width: 0.8"/>
      </g>
     </g>
     <g id="text_4">
      <!-- 60 -->
      <g transform="translate(379.558133 368.543238) scale(0.1 -0.1)">
       <defs>
        <path id="DejaVuSans-36" d="M 2113 2584 
Q 1688 2584 1439 2293 
Q 1191 2003 1191 1497 
Q 1191 994 1439 701 
Q 1688 409 2113 409 
Q 2538 409 2786 701 
Q 3034 994 3034 1497 
Q 3034 2003 2786 2293 
Q 2538 2584 2113 2584 
z
M 3366 4563 
L 3366 3988 
Q 3128 4100 2886 4159 
Q 2644 4219 2406 4219 
Q 1781 4219 1451 3797 
Q 1122 3375 1075 2522 
Q 1259 2794 1537 2939 
Q 1816 3084 2150 3084 
Q 2853 3084 3261 2657 
Q 3669 2231 3669 1497 
Q 3669 778 3244 343 
Q 2819 -91 2113 -91 
Q 1303 -91 875 529 
Q 447 1150 447 2328 
Q 447 3434 972 4092 
Q 1497 4750 2381 4750 
Q 2619 4750 2861 4703 
Q 3103 4656 3366 4563 
z
" transform="scale(0.015625)"/>
       </defs>
       <use xlink:href="#DejaVuSans-36"/>
       <use xlink:href="#DejaVuSans-30" transform="translate(63.623047 0)"/>
      </g>
     </g>
    </g>
    <g id="xtick_5">
     <g id="line2d_5">
      <g>
       <use xlink:href="#m4a088978d5" x="480.894051" y="353.9448" style="stroke: #000000; stroke-width: 0.8"/>
      </g>
     </g>
     <g id="text_5">
      <!-- 80 -->
      <g transform="translate(474.531551 368.543238) scale(0.1 -0.1)">
       <defs>
        <path id="DejaVuSans-38" d="M 2034 2216 
Q 1584 2216 1326 1975 
Q 1069 1734 1069 1313 
Q 1069 891 1326 650 
Q 1584 409 2034 409 
Q 2484 409 2743 651 
Q 3003 894 3003 1313 
Q 3003 1734 2745 1975 
Q 2488 2216 2034 2216 
z
M 1403 2484 
Q 997 2584 770 2862 
Q 544 3141 544 3541 
Q 544 4100 942 4425 
Q 1341 4750 2034 4750 
Q 2731 4750 3128 4425 
Q 3525 4100 3525 3541 
Q 3525 3141 3298 2862 
Q 3072 2584 2669 2484 
Q 3125 2378 3379 2068 
Q 3634 1759 3634 1313 
Q 3634 634 3220 271 
Q 2806 -91 2034 -91 
Q 1263 -91 848 271 
Q 434 634 434 1313 
Q 434 1759 690 2068 
Q 947 2378 1403 2484 
z
M 1172 3481 
Q 1172 3119 1398 2916 
Q 1625 2713 2034 2713 
Q 2441 2713 2670 2916 
Q 2900 3119 2900 3481 
Q 2900 3844 2670 4047 
Q 2441 4250 2034 4250 
Q 1625 4250 1398 4047 
Q 1172 3844 1172 3481 
z
" transform="scale(0.015625)"/>
       </defs>
       <use xlink:href="#DejaVuSans-38"/>
       <use xlink:href="#DejaVuSans-30" transform="translate(63.623047 0)"/>
      </g>
     </g>
    </g>
    <g id="xtick_6">
     <g id="line2d_6">
      <g>
       <use xlink:href="#m4a088978d5" x="575.867469" y="353.9448" style="stroke: #000000; stroke-width: 0.8"/>
      </g>
     </g>
     <g id="text_6">
      <!-- 100 -->
      <g transform="translate(566.323719 368.543238) scale(0.1 -0.1)">
       <defs>
        <path id="DejaVuSans-31" d="M 794 531 
L 1825 531 
L 1825 4091 
L 703 3866 
L 703 4441 
L 1819 4666 
L 2450 4666 
L 2450 531 
L 3481 531 
L 3481 0 
L 794 0 
L 794 531 
z
" transform="scale(0.015625)"/>
       </defs>
       <use xlink:href="#DejaVuSans-31"/>
       <use xlink:href="#DejaVuSans-30" transform="translate(63.623047 0)"/>
       <use xlink:href="#DejaVuSans-30" transform="translate(127.246094 0)"/>
      </g>
     </g>
    </g>
    <g id="xtick_7">
     <g id="line2d_7">
      <g>
       <use xlink:href="#m4a088978d5" x="670.840888" y="353.9448" style="stroke: #000000; stroke-width: 0.8"/>
      </g>
     </g>
     <g id="text_7">
      <!-- 120 -->
      <g transform="translate(661.297138 368.543238) scale(0.1 -0.1)">
       <use xlink:href="#DejaVuSans-31"/>
       <use xlink:href="#DejaVuSans-32" transform="translate(63.623047 0)"/>
       <use xlink:href="#DejaVuSans-30" transform="translate(127.246094 0)"/>
      </g>
     </g>
    </g>
    <g id="xtick_8">
     <g id="line2d_8">
      <g>
       <use xlink:href="#m4a088978d5" x="765.814306" y="353.9448" style="stroke: #000000; stroke-width: 0.8"/>
      </g>
     </g>
     <g id="text_8">
      <!-- 140 -->
      <g transform="translate(756.270556 368.543238) scale(0.1 -0.1)">
       <use xlink:href="#DejaVuSans-31"/>
       <use xlink:href="#DejaVuSans-34" transform="translate(63.623047 0)"/>
       <use xlink:href="#DejaVuSans-30" transform="translate(127.246094 0)"/>
      </g>
     </g>
    </g>
    <g id="text_9">
     <!-- Estadístico W -->
     <g transform="translate(390.263125 382.221362) scale(0.1 -0.1)">
      <defs>
       <path id="DejaVuSans-45" d="M 628 4666 
L 3578 4666 
L 3578 4134 
L 1259 4134 
L 1259 2753 
L 3481 2753 
L 3481 2222 
L 1259 2222 
L 1259 531 
L 3634 531 
L 3634 0 
L 628 0 
L 628 4666 
z
" transform="scale(0.015625)"/>
       <path id="DejaVuSans-73" d="M 2834 3397 
L 2834 2853 
Q 2591 2978 2328 3040 
Q 2066 3103 1784 3103 
Q 1356 3103 1142 2972 
Q 928 2841 928 2578 
Q 928 2378 1081 2264 
Q 1234 2150 1697 2047 
L 1894 2003 
Q 2506 1872 2764 1633 
Q 3022 1394 3022 966 
Q 3022 478 2636 193 
Q 2250 -91 1575 -91 
Q 1294 -91 989 -36 
Q 684 19 347 128 
L 347 722 
Q 666 556 975 473 
Q 1284 391 1588 391 
Q 1994 391 2212 530 
Q 2431 669 2431 922 
Q 2431 1156 2273 1281 
Q 2116 1406 1581 1522 
L 1381 1569 
Q 847 1681 609 1914 
Q 372 2147 372 2553 
Q 372 3047 722 3315 
Q 1072 3584 1716 3584 
Q 2034 3584 2315 3537 
Q 2597 3491 2834 3397 
z
" transform="scale(0.015625)"/>
       <path id="DejaVuSans-74" d="M 1172 4494 
L 1172 3500 
L 2356 3500 
L 2356 3053 
L 1172 3053 
L 1172 1153 
Q 1172 725 1289 603 
Q 1406 481 1766 481 
L 2356 481 
L 2356 0 
L 1766 0 
Q 1100 0 847 248 
Q 594 497 594 1153 
L 594 3053 
L 172 3053 
L 172 3500 
L 594 3500 
L 594 4494 
L 1172 4494 
z
" transform="scale(0.015625)"/>
       <path id="DejaVuSans-61" d="M 2194 1759 
Q 1497 1759 1228 1600 
Q 959 1441 959 1056 
Q 959 750 1161 570 
Q 1363 391 1709 391 
Q 2188 391 2477 730 
Q 2766 1069 2766 1631 
L 2766 1759 
L 2194 1759 
z
M 3341 1997 
L 3341 0 
L 2766 0 
L 2766 531 
Q 2569 213 2275 61 
Q 1981 -91 1556 -91 
Q 1019 -91 701 211 
Q 384 513 384 1019 
Q 384 1609 779 1909 
Q 1175 2209 1959 2209 
L 2766 2209 
L 2766 2266 
Q 2766 2663 2505 2880 
Q 2244 3097 1772 3097 
Q 1472 3097 1187 3025 
Q 903 2953 641 2809 
L 641 3341 
Q 956 3463 1253 3523 
Q 1550 3584 1831 3584 
Q 2591 3584 2966 3190 
Q 3341 2797 3341 1997 
z
" transform="scale(0.015625)"/>
       <path id="DejaVuSans-64" d="M 2906 2969 
L 2906 4863 
L 3481 4863 
L 3481 0 
L 2906 0 
L 2906 525 
Q 2725 213 2448 61 
Q 2172 -91 1784 -91 
Q 1150 -91 751 415 
Q 353 922 353 1747 
Q 353 2572 751 3078 
Q 1150 3584 1784 3584 
Q 2172 3584 2448 3432 
Q 2725 3281 2906 2969 
z
M 947 1747 
Q 947 1113 1208 752 
Q 1469 391 1925 391 
Q 2381 391 2643 752 
Q 2906 1113 2906 1747 
Q 2906 2381 2643 2742 
Q 2381 3103 1925 3103 
Q 1469 3103 1208 2742 
Q 947 2381 947 1747 
z
" transform="scale(0.015625)"/>
       <path id="DejaVuSans-ed" d="M 1322 5119 
L 1944 5119 
L 926 3944 
L 447 3944 
L 1322 5119 
z
M 603 3500 
L 1178 3500 
L 1178 0 
L 603 0 
L 603 3500 
z
M 891 3584 
L 891 3584 
z
" transform="scale(0.015625)"/>
       <path id="DejaVuSans-69" d="M 603 3500 
L 1178 3500 
L 1178 0 
L 603 0 
L 603 3500 
z
M 603 4863 
L 1178 4863 
L 1178 4134 
L 603 4134 
L 603 4863 
z
" transform="scale(0.015625)"/>
       <path id="DejaVuSans-63" d="M 3122 3366 
L 3122 2828 
Q 2878 2963 2633 3030 
Q 2388 3097 2138 3097 
Q 1578 3097 1268 2742 
Q 959 2388 959 1747 
Q 959 1106 1268 751 
Q 1578 397 2138 397 
Q 2388 397 2633 464 
Q 2878 531 3122 666 
L 3122 134 
Q 2881 22 2623 -34 
Q 2366 -91 2075 -91 
Q 1284 -91 818 406 
Q 353 903 353 1747 
Q 353 2603 823 3093 
Q 1294 3584 2113 3584 
Q 2378 3584 2631 3529 
Q 2884 3475 3122 3366 
z
" transform="scale(0.015625)"/>
       <path id="DejaVuSans-6f" d="M 1959 3097 
Q 1497 3097 1228 2736 
Q 959 2375 959 1747 
Q 959 1119 1226 758 
Q 1494 397 1959 397 
Q 2419 397 2687 759 
Q 2956 1122 2956 1747 
Q 2956 2369 2687 2733 
Q 2419 3097 1959 3097 
z
M 1959 3584 
Q 2709 3584 3137 3096 
Q 3566 2609 3566 1747 
Q 3566 888 3137 398 
Q 2709 -91 1959 -91 
Q 1206 -91 779 398 
Q 353 888 353 1747 
Q 353 2609 779 3096 
Q 1206 3584 1959 3584 
z
" transform="scale(0.015625)"/>
       <path id="DejaVuSans-20" transform="scale(0.015625)"/>
       <path id="DejaVuSans-57" d="M 213 4666 
L 850 4666 
L 1831 722 
L 2809 4666 
L 3519 4666 
L 4500 722 
L 5478 4666 
L 6119 4666 
L 4947 0 
L 4153 0 
L 3169 4050 
L 2175 0 
L 1381 0 
L 213 4666 
z
" transform="scale(0.015625)"/>
      </defs>
      <use xlink:href="#DejaVuSans-45"/>
      <use xlink:href="#DejaVuSans-73" transform="translate(63.183594 0)"/>
      <use xlink:href="#DejaVuSans-74" transform="translate(115.283203 0)"/>
      <use xlink:href="#DejaVuSans-61" transform="translate(154.492188 0)"/>
      <use xlink:href="#DejaVuSans-64" transform="translate(215.771484 0)"/>
      <use xlink:href="#DejaVuSans-ed" transform="translate(279.248047 0)"/>
      <use xlink:href="#DejaVuSans-73" transform="translate(307.03125 0)"/>
      <use xlink:href="#DejaVuSans-74" transform="translate(359.130859 0)"/>
      <use xlink:href="#DejaVuSans-69" transform="translate(398.339844 0)"/>
      <use xlink:href="#DejaVuSans-63" transform="translate(426.123047 0)"/>
      <use xlink:href="#DejaVuSans-6f" transform="translate(481.103516 0)"/>
      <use xlink:href="#DejaVuSans-20" transform="translate(542.285156 0)"/>
      <use xlink:href="#DejaVuSans-57" transform="translate(574.072266 0)"/>
     </g>
    </g>
   </g>
   <g id="matplotlib.axis_2">
    <g id="ytick_1">
     <g id="line2d_9">
      <defs>
       <path id="m42f1913273" d="M 0 0 
L -3.5 0 
" style="stroke: #000000; stroke-width: 0.8"/>
      </defs>
      <g>
       <use xlink:href="#m42f1913273" x="66.62" y="353.9448" style="stroke: #000000; stroke-width: 0.8"/>
      </g>
     </g>
     <g id="text_10">
      <!-- 0.0000 -->
      <g transform="translate(24.629375 357.744019) scale(0.1 -0.1)">
       <defs>
        <path id="DejaVuSans-2e" d="M 684 794 
L 1344 794 
L 1344 0 
L 684 0 
L 684 794 
z
" transform="scale(0.015625)"/>
       </defs>
       <use xlink:href="#DejaVuSans-30"/>
       <use xlink:href="#DejaVuSans-2e" transform="translate(63.623047 0)"/>
       <use xlink:href="#DejaVuSans-30" transform="translate(95.410156 0)"/>
       <use xlink:href="#DejaVuSans-30" transform="translate(159.033203 0)"/>
       <use xlink:href="#DejaVuSans-30" transform="translate(222.65625 0)"/>
       <use xlink:href="#DejaVuSans-30" transform="translate(286.279297 0)"/>
      </g>
     </g>
    </g>
    <g id="ytick_2">
     <g id="line2d_10">
      <g>
       <use xlink:href="#m42f1913273" x="66.62" y="317.388566" style="stroke: #000000; stroke-width: 0.8"/>
      </g>
     </g>
     <g id="text_11">
      <!-- 0.0025 -->
      <g transform="translate(24.629375 321.187784) scale(0.1 -0.1)">
       <defs>
        <path id="DejaVuSans-35" d="M 691 4666 
L 3169 4666 
L 3169 4134 
L 1269 4134 
L 1269 2991 
Q 1406 3038 1543 3061 
Q 1681 3084 1819 3084 
Q 2600 3084 3056 2656 
Q 3513 2228 3513 1497 
Q 3513 744 3044 326 
Q 2575 -91 1722 -91 
Q 1428 -91 1123 -41 
Q 819 9 494 109 
L 494 744 
Q 775 591 1075 516 
Q 1375 441 1709 441 
Q 2250 441 2565 725 
Q 2881 1009 2881 1497 
Q 2881 1984 2565 2268 
Q 2250 2553 1709 2553 
Q 1456 2553 1204 2497 
Q 953 2441 691 2322 
L 691 4666 
z
" transform="scale(0.015625)"/>
       </defs>
       <use xlink:href="#DejaVuSans-30"/>
       <use xlink:href="#DejaVuSans-2e" transform="translate(63.623047 0)"/>
       <use xlink:href="#DejaVuSans-30" transform="translate(95.410156 0)"/>
       <use xlink:href="#DejaVuSans-30" transform="translate(159.033203 0)"/>
       <use xlink:href="#DejaVuSans-32" transform="translate(222.65625 0)"/>
       <use xlink:href="#DejaVuSans-35" transform="translate(286.279297 0)"/>
      </g>
     </g>
    </g>
    <g id="ytick_3">
     <g id="line2d_11">
      <g>
       <use xlink:href="#m42f1913273" x="66.62" y="280.832331" style="stroke: #000000; stroke-width: 0.8"/>
      </g>
     </g>
     <g id="text_12">
      <!-- 0.0050 -->
      <g transform="translate(24.629375 284.63155) scale(0.1 -0.1)">
       <use xlink:href="#DejaVuSans-30"/>
       <use xlink:href="#DejaVuSans-2e" transform="translate(63.623047 0)"/>
       <use xlink:href="#DejaVuSans-30" transform="translate(95.410156 0)"/>
       <use xlink:href="#DejaVuSans-30" transform="translate(159.033203 0)"/>
       <use xlink:href="#DejaVuSans-35" transform="translate(222.65625 0)"/>
       <use xlink:href="#DejaVuSans-30" transform="translate(286.279297 0)"/>
      </g>
     </g>
    </g>
    <g id="ytick_4">
     <g id="line2d_12">
      <g>
       <use xlink:href="#m42f1913273" x="66.62" y="244.276097" style="stroke: #000000; stroke-width: 0.8"/>
      </g>
     </g>
     <g id="text_13">
      <!-- 0.0075 -->
      <g transform="translate(24.629375 248.075315) scale(0.1 -0.1)">
       <defs>
        <path id="DejaVuSans-37" d="M 525 4666 
L 3525 4666 
L 3525 4397 
L 1831 0 
L 1172 0 
L 2766 4134 
L 525 4134 
L 525 4666 
z
" transform="scale(0.015625)"/>
       </defs>
       <use xlink:href="#DejaVuSans-30"/>
       <use xlink:href="#DejaVuSans-2e" transform="translate(63.623047 0)"/>
       <use xlink:href="#DejaVuSans-30" transform="translate(95.410156 0)"/>
       <use xlink:href="#DejaVuSans-30" transform="translate(159.033203 0)"/>
       <use xlink:href="#DejaVuSans-37" transform="translate(222.65625 0)"/>
       <use xlink:href="#DejaVuSans-35" transform="translate(286.279297 0)"/>
      </g>
     </g>
    </g>
    <g id="ytick_5">
     <g id="line2d_13">
      <g>
       <use xlink:href="#m42f1913273" x="66.62" y="207.719862" style="stroke: #000000; stroke-width: 0.8"/>
      </g>
     </g>
     <g id="text_14">
      <!-- 0.0100 -->
      <g transform="translate(24.629375 211.519081) scale(0.1 -0.1)">
       <use xlink:href="#DejaVuSans-30"/>
       <use xlink:href="#DejaVuSans-2e" transform="translate(63.623047 0)"/>
       <use xlink:href="#DejaVuSans-30" transform="translate(95.410156 0)"/>
       <use xlink:href="#DejaVuSans-31" transform="translate(159.033203 0)"/>
       <use xlink:href="#DejaVuSans-30" transform="translate(222.65625 0)"/>
       <use xlink:href="#DejaVuSans-30" transform="translate(286.279297 0)"/>
      </g>
     </g>
    </g>
    <g id="ytick_6">
     <g id="line2d_14">
      <g>
       <use xlink:href="#m42f1913273" x="66.62" y="171.163628" style="stroke: #000000; stroke-width: 0.8"/>
      </g>
     </g>
     <g id="text_15">
      <!-- 0.0125 -->
      <g transform="translate(24.629375 174.962846) scale(0.1 -0.1)">
       <use xlink:href="#DejaVuSans-30"/>
       <use xlink:href="#DejaVuSans-2e" transform="translate(63.623047 0)"/>
       <use xlink:href="#DejaVuSans-30" transform="translate(95.410156 0)"/>
       <use xlink:href="#DejaVuSans-31" transform="translate(159.033203 0)"/>
       <use xlink:href="#DejaVuSans-32" transform="translate(222.65625 0)"/>
       <use xlink:href="#DejaVuSans-35" transform="translate(286.279297 0)"/>
      </g>
     </g>
    </g>
    <g id="ytick_7">
     <g id="line2d_15">
      <g>
       <use xlink:href="#m42f1913273" x="66.62" y="134.607393" style="stroke: #000000; stroke-width: 0.8"/>
      </g>
     </g>
     <g id="text_16">
      <!-- 0.0150 -->
      <g transform="translate(24.629375 138.406612) scale(0.1 -0.1)">
       <use xlink:href="#DejaVuSans-30"/>
       <use xlink:href="#DejaVuSans-2e" transform="translate(63.623047 0)"/>
       <use xlink:href="#DejaVuSans-30" transform="translate(95.410156 0)"/>
       <use xlink:href="#DejaVuSans-31" transform="translate(159.033203 0)"/>
       <use xlink:href="#DejaVuSans-35" transform="translate(222.65625 0)"/>
       <use xlink:href="#DejaVuSans-30" transform="translate(286.279297 0)"/>
      </g>
     </g>
    </g>
    <g id="ytick_8">
     <g id="line2d_16">
      <g>
       <use xlink:href="#m42f1913273" x="66.62" y="98.051159" style="stroke: #000000; stroke-width: 0.8"/>
      </g>
     </g>
     <g id="text_17">
      <!-- 0.0175 -->
      <g transform="translate(24.629375 101.850378) scale(0.1 -0.1)">
       <use xlink:href="#DejaVuSans-30"/>
       <use xlink:href="#DejaVuSans-2e" transform="translate(63.623047 0)"/>
       <use xlink:href="#DejaVuSans-30" transform="translate(95.410156 0)"/>
       <use xlink:href="#DejaVuSans-31" transform="translate(159.033203 0)"/>
       <use xlink:href="#DejaVuSans-37" transform="translate(222.65625 0)"/>
       <use xlink:href="#DejaVuSans-35" transform="translate(286.279297 0)"/>
      </g>
     </g>
    </g>
    <g id="ytick_9">
     <g id="line2d_17">
      <g>
       <use xlink:href="#m42f1913273" x="66.62" y="61.494924" style="stroke: #000000; stroke-width: 0.8"/>
      </g>
     </g>
     <g id="text_18">
      <!-- 0.0200 -->
      <g transform="translate(24.629375 65.294143) scale(0.1 -0.1)">
       <use xlink:href="#DejaVuSans-30"/>
       <use xlink:href="#DejaVuSans-2e" transform="translate(63.623047 0)"/>
       <use xlink:href="#DejaVuSans-30" transform="translate(95.410156 0)"/>
       <use xlink:href="#DejaVuSans-32" transform="translate(159.033203 0)"/>
       <use xlink:href="#DejaVuSans-30" transform="translate(222.65625 0)"/>
       <use xlink:href="#DejaVuSans-30" transform="translate(286.279297 0)"/>
      </g>
     </g>
    </g>
    <g id="text_19">
     <!-- Probabilidad -->
     <g transform="translate(18.549688 230.946275) rotate(-90) scale(0.1 -0.1)">
      <defs>
       <path id="DejaVuSans-50" d="M 1259 4147 
L 1259 2394 
L 2053 2394 
Q 2494 2394 2734 2622 
Q 2975 2850 2975 3272 
Q 2975 3691 2734 3919 
Q 2494 4147 2053 4147 
L 1259 4147 
z
M 628 4666 
L 2053 4666 
Q 2838 4666 3239 4311 
Q 3641 3956 3641 3272 
Q 3641 2581 3239 2228 
Q 2838 1875 2053 1875 
L 1259 1875 
L 1259 0 
L 628 0 
L 628 4666 
z
" transform="scale(0.015625)"/>
       <path id="DejaVuSans-72" d="M 2631 2963 
Q 2534 3019 2420 3045 
Q 2306 3072 2169 3072 
Q 1681 3072 1420 2755 
Q 1159 2438 1159 1844 
L 1159 0 
L 581 0 
L 581 3500 
L 1159 3500 
L 1159 2956 
Q 1341 3275 1631 3429 
Q 1922 3584 2338 3584 
Q 2397 3584 2469 3576 
Q 2541 3569 2628 3553 
L 2631 2963 
z
" transform="scale(0.015625)"/>
       <path id="DejaVuSans-62" d="M 3116 1747 
Q 3116 2381 2855 2742 
Q 2594 3103 2138 3103 
Q 1681 3103 1420 2742 
Q 1159 2381 1159 1747 
Q 1159 1113 1420 752 
Q 1681 391 2138 391 
Q 2594 391 2855 752 
Q 3116 1113 3116 1747 
z
M 1159 2969 
Q 1341 3281 1617 3432 
Q 1894 3584 2278 3584 
Q 2916 3584 3314 3078 
Q 3713 2572 3713 1747 
Q 3713 922 3314 415 
Q 2916 -91 2278 -91 
Q 1894 -91 1617 61 
Q 1341 213 1159 525 
L 1159 0 
L 581 0 
L 581 4863 
L 1159 4863 
L 1159 2969 
z
" transform="scale(0.015625)"/>
       <path id="DejaVuSans-6c" d="M 603 4863 
L 1178 4863 
L 1178 0 
L 603 0 
L 603 4863 
z
" transform="scale(0.015625)"/>
      </defs>
      <use xlink:href="#DejaVuSans-50"/>
      <use xlink:href="#DejaVuSans-72" transform="translate(58.552734 0)"/>
      <use xlink:href="#DejaVuSans-6f" transform="translate(97.416016 0)"/>
      <use xlink:href="#DejaVuSans-62" transform="translate(158.597656 0)"/>
      <use xlink:href="#DejaVuSans-61" transform="translate(222.074219 0)"/>
      <use xlink:href="#DejaVuSans-62" transform="translate(283.353516 0)"/>
      <use xlink:href="#DejaVuSans-69" transform="translate(346.830078 0)"/>
      <use xlink:href="#DejaVuSans-6c" transform="translate(374.613281 0)"/>
      <use xlink:href="#DejaVuSans-69" transform="translate(402.396484 0)"/>
      <use xlink:href="#DejaVuSans-64" transform="translate(430.179688 0)"/>
      <use xlink:href="#DejaVuSans-61" transform="translate(493.65625 0)"/>
      <use xlink:href="#DejaVuSans-64" transform="translate(554.935547 0)"/>
     </g>
    </g>
   </g>
   <g id="line2d_18">
    <path d="M 167.48177 353.9448 
L 167.48177 46.104 
" clip-path="url(#p4c90302e57)" style="fill: none; stroke-dasharray: 7.4,3.2; stroke-dashoffset: 0; stroke: #0000ff; stroke-width: 2"/>
   </g>
   <g id="line2d_19">
    <path d="M 267.20386 353.9448 
L 267.20386 46.104 
" clip-path="url(#p4c90302e57)" style="fill: none; stroke-dasharray: 12.8,3.2,2,3.2; stroke-dashoffset: 0; stroke: #ff0000; stroke-width: 2"/>
   </g>
   <g id="line2d_20">
    <path d="M 580.61614 353.9448 
L 580.61614 46.104 
" clip-path="url(#p4c90302e57)" style="fill: none; stroke-dasharray: 12.8,3.2,2,3.2; stroke-dashoffset: 0; stroke: #ff0000; stroke-width: 2"/>
   </g>
   <g id="patch_140">
    <path d="M 66.62 353.9448 
L 66.62 46.104 
" style="fill: none; stroke: #000000; stroke-width: 0.8; stroke-linejoin: miter; stroke-linecap: square"/>
   </g>
   <g id="patch_141">
    <path d="M 781.2 353.9448 
L 781.2 46.104 
" style="fill: none; stroke: #000000; stroke-width: 0.8; stroke-linejoin: miter; stroke-linecap: square"/>
   </g>
   <g id="patch_142">
    <path d="M 66.62 353.9448 
L 781.2 353.9448 
" style="fill: none; stroke: #000000; stroke-width: 0.8; stroke-linejoin: miter; stroke-linecap: square"/>
   </g>
   <g id="patch_143">
    <path d="M 66.62 46.104 
L 781.2 46.104 
" style="fill: none; stroke: #000000; stroke-width: 0.8; stroke-linejoin: miter; stroke-linecap: square"/>
   </g>
   <g id="text_20">
    <g id="patch_144">
     <path d="M 128.599895 387.988998 
L 206.363645 387.988998 
L 206.363645 368.455248 
L 128.599895 368.455248 
z
" style="fill: #ffffff; opacity: 0.85; stroke: #0000ff; stroke-linejoin: miter"/>
    </g>
    <!-- W obs = 14 -->
    <g style="fill: #0000ff" transform="translate(132.559895 381.533373) scale(0.12 -0.12)">
     <defs>
      <path id="DejaVuSans-3d" d="M 678 2906 
L 4684 2906 
L 4684 2381 
L 678 2381 
L 678 2906 
z
M 678 1631 
L 4684 1631 
L 4684 1100 
L 678 1100 
L 678 1631 
z
" transform="scale(0.015625)"/>
     </defs>
     <use xlink:href="#DejaVuSans-57"/>
     <use xlink:href="#DejaVuSans-20" transform="translate(98.876953 0)"/>
     <use xlink:href="#DejaVuSans-6f" transform="translate(130.664062 0)"/>
     <use xlink:href="#DejaVuSans-62" transform="translate(191.845703 0)"/>
     <use xlink:href="#DejaVuSans-73" transform="translate(255.322266 0)"/>
     <use xlink:href="#DejaVuSans-20" transform="translate(307.421875 0)"/>
     <use xlink:href="#DejaVuSans-3d" transform="translate(339.208984 0)"/>
     <use xlink:href="#DejaVuSans-20" transform="translate(422.998047 0)"/>
     <use xlink:href="#DejaVuSans-31" transform="translate(454.785156 0)"/>
     <use xlink:href="#DejaVuSans-34" transform="translate(518.408203 0)"/>
    </g>
   </g>
   <g id="text_21">
    <g id="patch_145">
     <path d="M 281.841828 192.196865 
L 281.841828 134.45624 
L 252.565891 134.45624 
L 252.565891 192.196865 
z
" style="fill: #ffffff; opacity: 0.7; stroke: #ff0000; stroke-linejoin: miter"/>
    </g>
    <!-- Crítico izq -->
    <g style="fill: #ff0000" transform="translate(264.564328 188.196865) rotate(-90) scale(0.1 -0.1)">
     <defs>
      <path id="DejaVuSans-43" d="M 4122 4306 
L 4122 3641 
Q 3803 3938 3442 4084 
Q 3081 4231 2675 4231 
Q 1875 4231 1450 3742 
Q 1025 3253 1025 2328 
Q 1025 1406 1450 917 
Q 1875 428 2675 428 
Q 3081 428 3442 575 
Q 3803 722 4122 1019 
L 4122 359 
Q 3791 134 3420 21 
Q 3050 -91 2638 -91 
Q 1578 -91 968 557 
Q 359 1206 359 2328 
Q 359 3453 968 4101 
Q 1578 4750 2638 4750 
Q 3056 4750 3426 4639 
Q 3797 4528 4122 4306 
z
" transform="scale(0.015625)"/>
      <path id="DejaVuSans-7a" d="M 353 3500 
L 3084 3500 
L 3084 2975 
L 922 459 
L 3084 459 
L 3084 0 
L 275 0 
L 275 525 
L 2438 3041 
L 353 3041 
L 353 3500 
z
" transform="scale(0.015625)"/>
      <path id="DejaVuSans-71" d="M 947 1747 
Q 947 1113 1208 752 
Q 1469 391 1925 391 
Q 2381 391 2643 752 
Q 2906 1113 2906 1747 
Q 2906 2381 2643 2742 
Q 2381 3103 1925 3103 
Q 1469 3103 1208 2742 
Q 947 2381 947 1747 
z
M 2906 525 
Q 2725 213 2448 61 
Q 2172 -91 1784 -91 
Q 1150 -91 751 415 
Q 353 922 353 1747 
Q 353 2572 751 3078 
Q 1150 3584 1784 3584 
Q 2172 3584 2448 3432 
Q 2725 3281 2906 2969 
L 2906 3500 
L 3481 3500 
L 3481 -1331 
L 2906 -1331 
L 2906 525 
z
" transform="scale(0.015625)"/>
     </defs>
     <use xlink:href="#DejaVuSans-43"/>
     <use xlink:href="#DejaVuSans-72" transform="translate(69.824219 0)"/>
     <use xlink:href="#DejaVuSans-ed" transform="translate(110.9375 0)"/>
     <use xlink:href="#DejaVuSans-74" transform="translate(138.720703 0)"/>
     <use xlink:href="#DejaVuSans-69" transform="translate(177.929688 0)"/>
     <use xlink:href="#DejaVuSans-63" transform="translate(205.712891 0)"/>
     <use xlink:href="#DejaVuSans-6f" transform="translate(260.693359 0)"/>
     <use xlink:href="#DejaVuSans-20" transform="translate(321.875 0)"/>
     <use xlink:href="#DejaVuSans-69" transform="translate(353.662109 0)"/>
     <use xlink:href="#DejaVuSans-7a" transform="translate(381.445312 0)"/>
     <use xlink:href="#DejaVuSans-71" transform="translate(433.935547 0)"/>
    </g>
    <!-- 35 -->
    <g style="fill: #ff0000" transform="translate(275.762141 169.689052) rotate(-90) scale(0.1 -0.1)">
     <defs>
      <path id="DejaVuSans-33" d="M 2597 2516 
Q 3050 2419 3304 2112 
Q 3559 1806 3559 1356 
Q 3559 666 3084 287 
Q 2609 -91 1734 -91 
Q 1441 -91 1130 -33 
Q 819 25 488 141 
L 488 750 
Q 750 597 1062 519 
Q 1375 441 1716 441 
Q 2309 441 2620 675 
Q 2931 909 2931 1356 
Q 2931 1769 2642 2001 
Q 2353 2234 1838 2234 
L 1294 2234 
L 1294 2753 
L 1863 2753 
Q 2328 2753 2575 2939 
Q 2822 3125 2822 3475 
Q 2822 3834 2567 4026 
Q 2313 4219 1838 4219 
Q 1578 4219 1281 4162 
Q 984 4106 628 3988 
L 628 4550 
Q 988 4650 1302 4700 
Q 1616 4750 1894 4750 
Q 2613 4750 3031 4423 
Q 3450 4097 3450 3541 
Q 3450 3153 3228 2886 
Q 3006 2619 2597 2516 
z
" transform="scale(0.015625)"/>
     </defs>
     <use xlink:href="#DejaVuSans-33"/>
     <use xlink:href="#DejaVuSans-35" transform="translate(63.623047 0)"/>
    </g>
   </g>
   <g id="text_22">
    <g id="patch_146">
     <path d="M 595.054109 194.434365 
L 595.054109 134.45624 
L 566.178172 134.45624 
L 566.178172 194.434365 
z
" style="fill: #ffffff; opacity: 0.7; stroke: #ff0000; stroke-linejoin: miter"/>
    </g>
    <!-- Crítico der -->
    <g style="fill: #ff0000" transform="translate(577.776609 190.434365) rotate(-90) scale(0.1 -0.1)">
     <defs>
      <path id="DejaVuSans-65" d="M 3597 1894 
L 3597 1613 
L 953 1613 
Q 991 1019 1311 708 
Q 1631 397 2203 397 
Q 2534 397 2845 478 
Q 3156 559 3463 722 
L 3463 178 
Q 3153 47 2828 -22 
Q 2503 -91 2169 -91 
Q 1331 -91 842 396 
Q 353 884 353 1716 
Q 353 2575 817 3079 
Q 1281 3584 2069 3584 
Q 2775 3584 3186 3129 
Q 3597 2675 3597 1894 
z
M 3022 2063 
Q 3016 2534 2758 2815 
Q 2500 3097 2075 3097 
Q 1594 3097 1305 2825 
Q 1016 2553 972 2059 
L 3022 2063 
z
" transform="scale(0.015625)"/>
     </defs>
     <use xlink:href="#DejaVuSans-43"/>
     <use xlink:href="#DejaVuSans-72" transform="translate(69.824219 0)"/>
     <use xlink:href="#DejaVuSans-ed" transform="translate(110.9375 0)"/>
     <use xlink:href="#DejaVuSans-74" transform="translate(138.720703 0)"/>
     <use xlink:href="#DejaVuSans-69" transform="translate(177.929688 0)"/>
     <use xlink:href="#DejaVuSans-63" transform="translate(205.712891 0)"/>
     <use xlink:href="#DejaVuSans-6f" transform="translate(260.693359 0)"/>
     <use xlink:href="#DejaVuSans-20" transform="translate(321.875 0)"/>
     <use xlink:href="#DejaVuSans-64" transform="translate(353.662109 0)"/>
     <use xlink:href="#DejaVuSans-65" transform="translate(417.138672 0)"/>
     <use xlink:href="#DejaVuSans-72" transform="translate(478.662109 0)"/>
    </g>
    <!-- 101 -->
    <g style="fill: #ff0000" transform="translate(588.974422 173.989052) rotate(-90) scale(0.1 -0.1)">
     <use xlink:href="#DejaVuSans-31"/>
     <use xlink:href="#DejaVuSans-30" transform="translate(63.623047 0)"/>
     <use xlink:href="#DejaVuSans-31" transform="translate(127.246094 0)"/>
    </g>
   </g>
   <g id="text_23">
    <g id="patch_147">
     <path d="M 69.8058 61.794849 
L 118.283925 61.794849 
L 118.283925 42.261099 
L 69.8058 42.261099 
z
" style="fill: #ffffff; opacity: 0.8; stroke: #000000; stroke-linejoin: miter"/>
    </g>
    <!-- n = 16 -->
    <g transform="translate(73.7658 55.339224) scale(0.12 -0.12)">
     <defs>
      <path id="DejaVuSans-6e" d="M 3513 2113 
L 3513 0 
L 2938 0 
L 2938 2094 
Q 2938 2591 2744 2837 
Q 2550 3084 2163 3084 
Q 1697 3084 1428 2787 
Q 1159 2491 1159 1978 
L 1159 0 
L 581 0 
L 581 3500 
L 1159 3500 
L 1159 2956 
Q 1366 3272 1645 3428 
Q 1925 3584 2291 3584 
Q 2894 3584 3203 3211 
Q 3513 2838 3513 2113 
z
" transform="scale(0.015625)"/>
     </defs>
     <use xlink:href="#DejaVuSans-6e"/>
     <use xlink:href="#DejaVuSans-20" transform="translate(63.378906 0)"/>
     <use xlink:href="#DejaVuSans-3d" transform="translate(95.166016 0)"/>
     <use xlink:href="#DejaVuSans-20" transform="translate(178.955078 0)"/>
     <use xlink:href="#DejaVuSans-31" transform="translate(210.742188 0)"/>
     <use xlink:href="#DejaVuSans-36" transform="translate(274.365234 0)"/>
    </g>
   </g>
   <g id="text_24">
    <g id="patch_148">
     <path d="M 69.8058 92.578929 
L 135.252675 92.578929 
L 135.252675 59.607804 
L 69.8058 59.607804 
z
" style="fill: #ffffff; opacity: 0.8; stroke: #000000; stroke-linejoin: miter"/>
    </g>
    <!-- α = 0.05 -->
    <g transform="translate(73.7658 72.685929) scale(0.12 -0.12)">
     <defs>
      <path id="DejaVuSans-3b1" d="M 2644 1628 
L 2506 2350 
Q 2366 3091 1809 3091 
Q 1391 3091 1200 2747 
Q 959 2316 959 1747 
Q 959 1059 1194 731 
Q 1431 397 1809 397 
Q 2228 397 2453 1063 
L 2644 1628 
z
M 2966 2584 
L 3275 3500 
L 3788 3500 
L 3147 1603 
L 3272 919 
Q 3300 766 3409 638 
Q 3538 488 3638 488 
L 3913 488 
L 3913 0 
L 3569 0 
Q 3275 0 3013 263 
Q 2884 394 2831 669 
Q 2688 322 2394 50 
Q 2256 -78 1809 -78 
Q 1075 -78 719 397 
Q 353 888 353 1747 
Q 353 2666 750 3097 
Q 1191 3578 1809 3578 
Q 2781 3578 2966 2584 
z
" transform="scale(0.015625)"/>
     </defs>
     <use xlink:href="#DejaVuSans-3b1"/>
     <use xlink:href="#DejaVuSans-20" transform="translate(65.917969 0)"/>
     <use xlink:href="#DejaVuSans-3d" transform="translate(97.705078 0)"/>
     <use xlink:href="#DejaVuSans-20" transform="translate(181.494141 0)"/>
     <use xlink:href="#DejaVuSans-30" transform="translate(213.28125 0)"/>
     <use xlink:href="#DejaVuSans-2e" transform="translate(276.904297 0)"/>
     <use xlink:href="#DejaVuSans-30" transform="translate(308.691406 0)"/>
     <use xlink:href="#DejaVuSans-35" transform="translate(372.314453 0)"/>
    </g>
    <!-- Dos colas -->
    <g transform="translate(73.7658 86.123304) scale(0.12 -0.12)">
     <defs>
      <path id="DejaVuSans-44" d="M 1259 4147 
L 1259 519 
L 2022 519 
Q 2988 519 3436 956 
Q 3884 1394 3884 2338 
Q 3884 3275 3436 3711 
Q 2988 4147 2022 4147 
L 1259 4147 
z
M 628 4666 
L 1925 4666 
Q 3281 4666 3915 4102 
Q 4550 3538 4550 2338 
Q 4550 1131 3912 565 
Q 3275 0 1925 0 
L 628 0 
L 628 4666 
z
" transform="scale(0.015625)"/>
     </defs>
     <use xlink:href="#DejaVuSans-44"/>
     <use xlink:href="#DejaVuSans-6f" transform="translate(77.001953 0)"/>
     <use xlink:href="#DejaVuSans-73" transform="translate(138.183594 0)"/>
     <use xlink:href="#DejaVuSans-20" transform="translate(190.283203 0)"/>
     <use xlink:href="#DejaVuSans-63" transform="translate(222.070312 0)"/>
     <use xlink:href="#DejaVuSans-6f" transform="translate(277.050781 0)"/>
     <use xlink:href="#DejaVuSans-6c" transform="translate(338.232422 0)"/>
     <use xlink:href="#DejaVuSans-61" transform="translate(366.015625 0)"/>
     <use xlink:href="#DejaVuSans-73" transform="translate(427.294922 0)"/>
    </g>
   </g>
   <g id="text_25">
    <g id="patch_149">
     <path d="M 668.748575 61.794849 
L 778.0142 61.794849 
L 778.0142 42.261099 
L 668.748575 42.261099 
z
" style="fill: #ffffff; opacity: 0.8; stroke: #000000; stroke-linejoin: miter"/>
    </g>
    <!-- Valor p = 0.0051 -->
    <g transform="translate(672.708575 55.339224) scale(0.12 -0.12)">
     <defs>
      <path id="DejaVuSans-56" d="M 1831 0 
L 50 4666 
L 709 4666 
L 2188 738 
L 3669 4666 
L 4325 4666 
L 2547 0 
L 1831 0 
z
" transform="scale(0.015625)"/>
      <path id="DejaVuSans-70" d="M 1159 525 
L 1159 -1331 
L 581 -1331 
L 581 3500 
L 1159 3500 
L 1159 2969 
Q 1341 3281 1617 3432 
Q 1894 3584 2278 3584 
Q 2916 3584 3314 3078 
Q 3713 2572 3713 1747 
Q 3713 922 3314 415 
Q 2916 -91 2278 -91 
Q 1894 -91 1617 61 
Q 1341 213 1159 525 
z
M 3116 1747 
Q 3116 2381 2855 2742 
Q 2594 3103 2138 3103 
Q 1681 3103 1420 2742 
Q 1159 2381 1159 1747 
Q 1159 1113 1420 752 
Q 1681 391 2138 391 
Q 2594 391 2855 752 
Q 3116 1113 3116 1747 
z
" transform="scale(0.015625)"/>
     </defs>
     <use xlink:href="#DejaVuSans-56"/>
     <use xlink:href="#DejaVuSans-61" transform="translate(60.658203 0)"/>
     <use xlink:href="#DejaVuSans-6c" transform="translate(121.9375 0)"/>
     <use xlink:href="#DejaVuSans-6f" transform="translate(149.720703 0)"/>
     <use xlink:href="#DejaVuSans-72" transform="translate(210.902344 0)"/>
     <use xlink:href="#DejaVuSans-20" transform="translate(252.015625 0)"/>
     <use xlink:href="#DejaVuSans-70" transform="translate(283.802734 0)"/>
     <use xlink:href="#DejaVuSans-20" transform="translate(347.279297 0)"/>
     <use xlink:href="#DejaVuSans-3d" transform="translate(379.066406 0)"/>
     <use xlink:href="#DejaVuSans-20" transform="translate(462.855469 0)"/>
     <use xlink:href="#DejaVuSans-30" transform="translate(494.642578 0)"/>
     <use xlink:href="#DejaVuSans-2e" transform="translate(558.265625 0)"/>
     <use xlink:href="#DejaVuSans-30" transform="translate(590.052734 0)"/>
     <use xlink:href="#DejaVuSans-30" transform="translate(653.675781 0)"/>
     <use xlink:href="#DejaVuSans-35" transform="translate(717.298828 0)"/>
     <use xlink:href="#DejaVuSans-31" transform="translate(780.921875 0)"/>
    </g>
   </g>
   <g id="text_26">
    <g id="patch_150">
     <path d="M 663.923887 345.05276 
L 774.0542 345.05276 
Q 780.5542 345.05276 780.5542 338.55276 
L 780.5542 311.414041 
Q 780.5542 304.914041 774.0542 304.914041 
L 663.923887 304.914041 
Q 657.423887 304.914041 657.423887 311.414041 
L 657.423887 338.55276 
Q 657.423887 345.05276 663.923887 345.05276 
z
" style="fill: #ffffe0; opacity: 0.95; stroke: #ffa500; stroke-linejoin: miter"/>
    </g>
    <!-- Validación de H₀: -->
    <g transform="translate(663.923887 321.29201) scale(0.13 -0.13)">
     <defs>
      <path id="DejaVuSans-f3" d="M 1959 3097 
Q 1497 3097 1228 2736 
Q 959 2375 959 1747 
Q 959 1119 1226 758 
Q 1494 397 1959 397 
Q 2419 397 2687 759 
Q 2956 1122 2956 1747 
Q 2956 2369 2687 2733 
Q 2419 3097 1959 3097 
z
M 1959 3584 
Q 2709 3584 3137 3096 
Q 3566 2609 3566 1747 
Q 3566 888 3137 398 
Q 2709 -91 1959 -91 
Q 1206 -91 779 398 
Q 353 888 353 1747 
Q 353 2609 779 3096 
Q 1206 3584 1959 3584 
z
M 2394 5119 
L 3016 5119 
L 1998 3944 
L 1519 3944 
L 2394 5119 
z
" transform="scale(0.015625)"/>
      <path id="DejaVuSans-48" d="M 628 4666 
L 1259 4666 
L 1259 2753 
L 3553 2753 
L 3553 4666 
L 4184 4666 
L 4184 0 
L 3553 0 
L 3553 2222 
L 1259 2222 
L 1259 0 
L 628 0 
L 628 4666 
z
" transform="scale(0.015625)"/>
      <path id="DejaVuSans-2080" d="M 1781 2091 
Q 1625 2360 1309 2360 
Q 994 2360 838 2091 
Q 678 1822 678 1285 
Q 678 744 838 476 
Q 994 207 1309 207 
Q 1625 207 1781 476 
Q 1941 744 1941 1285 
Q 1941 1822 1781 2091 
z
M 1309 2638 
Q 1813 2638 2078 2291 
Q 2344 1944 2344 1285 
Q 2344 622 2078 275 
Q 1813 -71 1309 -71 
Q 803 -71 537 275 
Q 272 622 272 1285 
Q 272 1944 537 2291 
Q 803 2638 1309 2638 
z
" transform="scale(0.015625)"/>
      <path id="DejaVuSans-3a" d="M 750 794 
L 1409 794 
L 1409 0 
L 750 0 
L 750 794 
z
M 750 3309 
L 1409 3309 
L 1409 2516 
L 750 2516 
L 750 3309 
z
" transform="scale(0.015625)"/>
     </defs>
     <use xlink:href="#DejaVuSans-56"/>
     <use xlink:href="#DejaVuSans-61" transform="translate(60.658203 0)"/>
     <use xlink:href="#DejaVuSans-6c" transform="translate(121.9375 0)"/>
     <use xlink:href="#DejaVuSans-69" transform="translate(149.720703 0)"/>
     <use xlink:href="#DejaVuSans-64" transform="translate(177.503906 0)"/>
     <use xlink:href="#DejaVuSans-61" transform="translate(240.980469 0)"/>
     <use xlink:href="#DejaVuSans-63" transform="translate(302.259766 0)"/>
     <use xlink:href="#DejaVuSans-69" transform="translate(357.240234 0)"/>
     <use xlink:href="#DejaVuSans-f3" transform="translate(385.023438 0)"/>
     <use xlink:href="#DejaVuSans-6e" transform="translate(446.205078 0)"/>
     <use xlink:href="#DejaVuSans-20" transform="translate(509.583984 0)"/>
     <use xlink:href="#DejaVuSans-64" transform="translate(541.371094 0)"/>
     <use xlink:href="#DejaVuSans-65" transform="translate(604.847656 0)"/>
     <use xlink:href="#DejaVuSans-20" transform="translate(666.371094 0)"/>
     <use xlink:href="#DejaVuSans-48" transform="translate(698.158203 0)"/>
     <use xlink:href="#DejaVuSans-2080" transform="translate(773.353516 0)"/>
     <use xlink:href="#DejaVuSans-3a" transform="translate(813.441406 0)"/>
    </g>
    <!--  -->
    <g transform="translate(774.0542 335.849166) scale(0.13 -0.13)"/>
   </g>
   <g id="text_27">
    <!-- Distribución exacta de Wilcoxon para WILCOXON-C2-NLM -->
    <g transform="translate(209.698281 23.307281) scale(0.15 -0.15)">
     <defs>
      <path id="DejaVuSans-75" d="M 544 1381 
L 544 3500 
L 1119 3500 
L 1119 1403 
Q 1119 906 1312 657 
Q 1506 409 1894 409 
Q 2359 409 2629 706 
Q 2900 1003 2900 1516 
L 2900 3500 
L 3475 3500 
L 3475 0 
L 2900 0 
L 2900 538 
Q 2691 219 2414 64 
Q 2138 -91 1772 -91 
Q 1169 -91 856 284 
Q 544 659 544 1381 
z
M 1991 3584 
L 1991 3584 
z
" transform="scale(0.015625)"/>
      <path id="DejaVuSans-78" d="M 3513 3500 
L 2247 1797 
L 3578 0 
L 2900 0 
L 1881 1375 
L 863 0 
L 184 0 
L 1544 1831 
L 300 3500 
L 978 3500 
L 1906 2253 
L 2834 3500 
L 3513 3500 
z
" transform="scale(0.015625)"/>
      <path id="DejaVuSans-49" d="M 628 4666 
L 1259 4666 
L 1259 0 
L 628 0 
L 628 4666 
z
" transform="scale(0.015625)"/>
      <path id="DejaVuSans-4c" d="M 628 4666 
L 1259 4666 
L 1259 531 
L 3531 531 
L 3531 0 
L 628 0 
L 628 4666 
z
" transform="scale(0.015625)"/>
      <path id="DejaVuSans-4f" d="M 2522 4238 
Q 1834 4238 1429 3725 
Q 1025 3213 1025 2328 
Q 1025 1447 1429 934 
Q 1834 422 2522 422 
Q 3209 422 3611 934 
Q 4013 1447 4013 2328 
Q 4013 3213 3611 3725 
Q 3209 4238 2522 4238 
z
M 2522 4750 
Q 3503 4750 4090 4092 
Q 4678 3434 4678 2328 
Q 4678 1225 4090 567 
Q 3503 -91 2522 -91 
Q 1538 -91 948 565 
Q 359 1222 359 2328 
Q 359 3434 948 4092 
Q 1538 4750 2522 4750 
z
" transform="scale(0.015625)"/>
      <path id="DejaVuSans-58" d="M 403 4666 
L 1081 4666 
L 2241 2931 
L 3406 4666 
L 4084 4666 
L 2584 2425 
L 4184 0 
L 3506 0 
L 2194 1984 
L 872 0 
L 191 0 
L 1856 2491 
L 403 4666 
z
" transform="scale(0.015625)"/>
      <path id="DejaVuSans-4e" d="M 628 4666 
L 1478 4666 
L 3547 763 
L 3547 4666 
L 4159 4666 
L 4159 0 
L 3309 0 
L 1241 3903 
L 1241 0 
L 628 0 
L 628 4666 
z
" transform="scale(0.015625)"/>
      <path id="DejaVuSans-2d" d="M 313 2009 
L 1997 2009 
L 1997 1497 
L 313 1497 
L 313 2009 
z
" transform="scale(0.015625)"/>
      <path id="DejaVuSans-4d" d="M 628 4666 
L 1569 4666 
L 2759 1491 
L 3956 4666 
L 4897 4666 
L 4897 0 
L 4281 0 
L 4281 4097 
L 3078 897 
L 2444 897 
L 1241 4097 
L 1241 0 
L 628 0 
L 628 4666 
z
" transform="scale(0.015625)"/>
     </defs>
     <use xlink:href="#DejaVuSans-44"/>
     <use xlink:href="#DejaVuSans-69" transform="translate(77.001953 0)"/>
     <use xlink:href="#DejaVuSans-73" transform="translate(104.785156 0)"/>
     <use xlink:href="#DejaVuSans-74" transform="translate(156.884766 0)"/>
     <use xlink:href="#DejaVuSans-72" transform="translate(196.09375 0)"/>
     <use xlink:href="#DejaVuSans-69" transform="translate(237.207031 0)"/>
     <use xlink:href="#DejaVuSans-62" transform="translate(264.990234 0)"/>
     <use xlink:href="#DejaVuSans-75" transform="translate(328.466797 0)"/>
     <use xlink:href="#DejaVuSans-63" transform="translate(391.845703 0)"/>
     <use xlink:href="#DejaVuSans-69" transform="translate(446.826172 0)"/>
     <use xlink:href="#DejaVuSans-f3" transform="translate(474.609375 0)"/>
     <use xlink:href="#DejaVuSans-6e" transform="translate(535.791016 0)"/>
     <use xlink:href="#DejaVuSans-20" transform="translate(599.169922 0)"/>
     <use xlink:href="#DejaVuSans-65" transform="translate(630.957031 0)"/>
     <use xlink:href="#DejaVuSans-78" transform="translate(690.730469 0)"/>
     <use xlink:href="#DejaVuSans-61" transform="translate(749.910156 0)"/>
     <use xlink:href="#DejaVuSans-63" transform="translate(811.189453 0)"/>
     <use xlink:href="#DejaVuSans-74" transform="translate(866.169922 0)"/>
     <use xlink:href="#DejaVuSans-61" transform="translate(905.378906 0)"/>
     <use xlink:href="#DejaVuSans-20" transform="translate(966.658203 0)"/>
     <use xlink:href="#DejaVuSans-64" transform="translate(998.445312 0)"/>
     <use xlink:href="#DejaVuSans-65" transform="translate(1061.921875 0)"/>
     <use xlink:href="#DejaVuSans-20" transform="translate(1123.445312 0)"/>
     <use xlink:href="#DejaVuSans-57" transform="translate(1155.232422 0)"/>
     <use xlink:href="#DejaVuSans-69" transform="translate(1251.859375 0)"/>
     <use xlink:href="#DejaVuSans-6c" transform="translate(1279.642578 0)"/>
     <use xlink:href="#DejaVuSans-63" transform="translate(1307.425781 0)"/>
     <use xlink:href="#DejaVuSans-6f" transform="translate(1362.40625 0)"/>
     <use xlink:href="#DejaVuSans-78" transform="translate(1420.462891 0)"/>
     <use xlink:href="#DejaVuSans-6f" transform="translate(1476.517578 0)"/>
     <use xlink:href="#DejaVuSans-6e" transform="translate(1537.699219 0)"/>
     <use xlink:href="#DejaVuSans-20" transform="translate(1601.078125 0)"/>
     <use xlink:href="#DejaVuSans-70" transform="translate(1632.865234 0)"/>
     <use xlink:href="#DejaVuSans-61" transform="translate(1696.341797 0)"/>
     <use xlink:href="#DejaVuSans-72" transform="translate(1757.621094 0)"/>
     <use xlink:href="#DejaVuSans-61" transform="translate(1798.734375 0)"/>
     <use xlink:href="#DejaVuSans-20" transform="translate(1860.013672 0)"/>
     <use xlink:href="#DejaVuSans-57" transform="translate(1891.800781 0)"/>
     <use xlink:href="#DejaVuSans-49" transform="translate(1990.677734 0)"/>
     <use xlink:href="#DejaVuSans-4c" transform="translate(2020.169922 0)"/>
     <use xlink:href="#DejaVuSans-43" transform="translate(2075.882812 0)"/>
     <use xlink:href="#DejaVuSans-4f" transform="translate(2145.707031 0)"/>
     <use xlink:href="#DejaVuSans-58" transform="translate(2218.042969 0)"/>
     <use xlink:href="#DejaVuSans-4f" transform="translate(2280.173828 0)"/>
     <use xlink:href="#DejaVuSans-4e" transform="translate(2358.884766 0)"/>
     <use xlink:href="#DejaVuSans-2d" transform="translate(2433.689453 0)"/>
     <use xlink:href="#DejaVuSans-43" transform="translate(2469.773438 0)"/>
     <use xlink:href="#DejaVuSans-32" transform="translate(2539.597656 0)"/>
     <use xlink:href="#DejaVuSans-2d" transform="translate(2603.220703 0)"/>
     <use xlink:href="#DejaVuSans-4e" transform="translate(2639.304688 0)"/>
     <use xlink:href="#DejaVuSans-4c" transform="translate(2714.109375 0)"/>
     <use xlink:href="#DejaVuSans-4d" transform="translate(2769.822266 0)"/>
    </g>
    <!-- Zonas de rechazo (dos colas) -->
    <g transform="translate(314.079531 40.104) scale(0.15 -0.15)">
     <defs>
      <path id="DejaVuSans-5a" d="M 359 4666 
L 4025 4666 
L 4025 4184 
L 1075 531 
L 4097 531 
L 4097 0 
L 288 0 
L 288 481 
L 3238 4134 
L 359 4134 
L 359 4666 
z
" transform="scale(0.015625)"/>
      <path id="DejaVuSans-68" d="M 3513 2113 
L 3513 0 
L 2938 0 
L 2938 2094 
Q 2938 2591 2744 2837 
Q 2550 3084 2163 3084 
Q 1697 3084 1428 2787 
Q 1159 2491 1159 1978 
L 1159 0 
L 581 0 
L 581 4863 
L 1159 4863 
L 1159 2956 
Q 1366 3272 1645 3428 
Q 1925 3584 2291 3584 
Q 2894 3584 3203 3211 
Q 3513 2838 3513 2113 
z
" transform="scale(0.015625)"/>
      <path id="DejaVuSans-28" d="M 1984 4856 
Q 1566 4138 1362 3434 
Q 1159 2731 1159 2009 
Q 1159 1288 1364 580 
Q 1569 -128 1984 -844 
L 1484 -844 
Q 1016 -109 783 600 
Q 550 1309 550 2009 
Q 550 2706 781 3412 
Q 1013 4119 1484 4856 
L 1984 4856 
z
" transform="scale(0.015625)"/>
      <path id="DejaVuSans-29" d="M 513 4856 
L 1013 4856 
Q 1481 4119 1714 3412 
Q 1947 2706 1947 2009 
Q 1947 1309 1714 600 
Q 1481 -109 1013 -844 
L 513 -844 
Q 928 -128 1133 580 
Q 1338 1288 1338 2009 
Q 1338 2731 1133 3434 
Q 928 4138 513 4856 
z
" transform="scale(0.015625)"/>
     </defs>
     <use xlink:href="#DejaVuSans-5a"/>
     <use xlink:href="#DejaVuSans-6f" transform="translate(68.505859 0)"/>
     <use xlink:href="#DejaVuSans-6e" transform="translate(129.6875 0)"/>
     <use xlink:href="#DejaVuSans-61" transform="translate(193.066406 0)"/>
     <use xlink:href="#DejaVuSans-73" transform="translate(254.345703 0)"/>
     <use xlink:href="#DejaVuSans-20" transform="translate(306.445312 0)"/>
     <use xlink:href="#DejaVuSans-64" transform="translate(338.232422 0)"/>
     <use xlink:href="#DejaVuSans-65" transform="translate(401.708984 0)"/>
     <use xlink:href="#DejaVuSans-20" transform="translate(463.232422 0)"/>
     <use xlink:href="#DejaVuSans-72" transform="translate(495.019531 0)"/>
     <use xlink:href="#DejaVuSans-65" transform="translate(533.882812 0)"/>
     <use xlink:href="#DejaVuSans-63" transform="translate(595.40625 0)"/>
     <use xlink:href="#DejaVuSans-68" transform="translate(650.386719 0)"/>
     <use xlink:href="#DejaVuSans-61" transform="translate(713.765625 0)"/>
     <use xlink:href="#DejaVuSans-7a" transform="translate(775.044922 0)"/>
     <use xlink:href="#DejaVuSans-6f" transform="translate(827.535156 0)"/>
     <use xlink:href="#DejaVuSans-20" transform="translate(888.716797 0)"/>
     <use xlink:href="#DejaVuSans-28" transform="translate(920.503906 0)"/>
     <use xlink:href="#DejaVuSans-64" transform="translate(959.517578 0)"/>
     <use xlink:href="#DejaVuSans-6f" transform="translate(1022.994141 0)"/>
     <use xlink:href="#DejaVuSans-73" transform="translate(1084.175781 0)"/>
     <use xlink:href="#DejaVuSans-20" transform="translate(1136.275391 0)"/>
     <use xlink:href="#DejaVuSans-63" transform="translate(1168.0625 0)"/>
     <use xlink:href="#DejaVuSans-6f" transform="translate(1223.042969 0)"/>
     <use xlink:href="#DejaVuSans-6c" transform="translate(1284.224609 0)"/>
     <use xlink:href="#DejaVuSans-61" transform="translate(1312.007812 0)"/>
     <use xlink:href="#DejaVuSans-73" transform="translate(1373.287109 0)"/>
     <use xlink:href="#DejaVuSans-29" transform="translate(1425.386719 0)"/>
    </g>
   </g>
   <g id="legend_1">
    <g id="patch_151">
     <path d="M 216.815469 69.182125 
L 631.004531 69.182125 
Q 633.004531 69.182125 633.004531 67.182125 
L 633.004531 53.104 
Q 633.004531 51.104 631.004531 51.104 
L 216.815469 51.104 
Q 214.815469 51.104 214.815469 53.104 
L 214.815469 67.182125 
Q 214.815469 69.182125 216.815469 69.182125 
z
" style="fill: #ffffff; opacity: 0.8; stroke: #cccccc; stroke-linejoin: miter"/>
    </g>
    <g id="patch_152">
     <path d="M 218.815469 63.102437 
L 238.815469 63.102437 
L 238.815469 56.102437 
L 218.815469 56.102437 
z
" style="fill: #90ee90"/>
    </g>
    <g id="text_28">
     <!-- Zona de aceptación -->
     <g transform="translate(246.815469 63.102437) scale(0.1 -0.1)">
      <use xlink:href="#DejaVuSans-5a"/>
      <use xlink:href="#DejaVuSans-6f" transform="translate(68.505859 0)"/>
      <use xlink:href="#DejaVuSans-6e" transform="translate(129.6875 0)"/>
      <use xlink:href="#DejaVuSans-61" transform="translate(193.066406 0)"/>
      <use xlink:href="#DejaVuSans-20" transform="translate(254.345703 0)"/>
      <use xlink:href="#DejaVuSans-64" transform="translate(286.132812 0)"/>
      <use xlink:href="#DejaVuSans-65" transform="translate(349.609375 0)"/>
      <use xlink:href="#DejaVuSans-20" transform="translate(411.132812 0)"/>
      <use xlink:href="#DejaVuSans-61" transform="translate(442.919922 0)"/>
      <use xlink:href="#DejaVuSans-63" transform="translate(504.199219 0)"/>
      <use xlink:href="#DejaVuSans-65" transform="translate(559.179688 0)"/>
      <use xlink:href="#DejaVuSans-70" transform="translate(620.703125 0)"/>
      <use xlink:href="#DejaVuSans-74" transform="translate(684.179688 0)"/>
      <use xlink:href="#DejaVuSans-61" transform="translate(723.388672 0)"/>
      <use xlink:href="#DejaVuSans-63" transform="translate(784.667969 0)"/>
      <use xlink:href="#DejaVuSans-69" transform="translate(839.648438 0)"/>
      <use xlink:href="#DejaVuSans-f3" transform="translate(867.431641 0)"/>
      <use xlink:href="#DejaVuSans-6e" transform="translate(928.613281 0)"/>
     </g>
    </g>
    <g id="patch_153">
     <path d="M 366.017031 63.102437 
L 386.017031 63.102437 
L 386.017031 56.102437 
L 366.017031 56.102437 
z
" style="fill: #fa8072"/>
    </g>
    <g id="text_29">
     <!-- Rechazo (W ≤ 35) -->
     <g transform="translate(394.017031 63.102437) scale(0.1 -0.1)">
      <defs>
       <path id="DejaVuSans-52" d="M 2841 2188 
Q 3044 2119 3236 1894 
Q 3428 1669 3622 1275 
L 4263 0 
L 3584 0 
L 2988 1197 
Q 2756 1666 2539 1819 
Q 2322 1972 1947 1972 
L 1259 1972 
L 1259 0 
L 628 0 
L 628 4666 
L 2053 4666 
Q 2853 4666 3247 4331 
Q 3641 3997 3641 3322 
Q 3641 2881 3436 2590 
Q 3231 2300 2841 2188 
z
M 1259 4147 
L 1259 2491 
L 2053 2491 
Q 2509 2491 2742 2702 
Q 2975 2913 2975 3322 
Q 2975 3731 2742 3939 
Q 2509 4147 2053 4147 
L 1259 4147 
z
" transform="scale(0.015625)"/>
       <path id="DejaVuSans-2264" d="M 4684 3175 
L 1684 2309 
L 4684 1453 
L 4684 897 
L 678 2047 
L 678 2578 
L 4684 3725 
L 4684 3175 
z
M 678 531 
L 4684 531 
L 4684 0 
L 678 0 
L 678 531 
z
" transform="scale(0.015625)"/>
      </defs>
      <use xlink:href="#DejaVuSans-52"/>
      <use xlink:href="#DejaVuSans-65" transform="translate(64.982422 0)"/>
      <use xlink:href="#DejaVuSans-63" transform="translate(126.505859 0)"/>
      <use xlink:href="#DejaVuSans-68" transform="translate(181.486328 0)"/>
      <use xlink:href="#DejaVuSans-61" transform="translate(244.865234 0)"/>
      <use xlink:href="#DejaVuSans-7a" transform="translate(306.144531 0)"/>
      <use xlink:href="#DejaVuSans-6f" transform="translate(358.634766 0)"/>
      <use xlink:href="#DejaVuSans-20" transform="translate(419.816406 0)"/>
      <use xlink:href="#DejaVuSans-28" transform="translate(451.603516 0)"/>
      <use xlink:href="#DejaVuSans-57" transform="translate(490.617188 0)"/>
      <use xlink:href="#DejaVuSans-20" transform="translate(589.494141 0)"/>
      <use xlink:href="#DejaVuSans-2264" transform="translate(621.28125 0)"/>
      <use xlink:href="#DejaVuSans-20" transform="translate(705.070312 0)"/>
      <use xlink:href="#DejaVuSans-33" transform="translate(736.857422 0)"/>
      <use xlink:href="#DejaVuSans-35" transform="translate(800.480469 0)"/>
      <use xlink:href="#DejaVuSans-29" transform="translate(864.103516 0)"/>
     </g>
    </g>
    <g id="patch_154">
     <path d="M 504.329531 63.102437 
L 524.329531 63.102437 
L 524.329531 56.102437 
L 504.329531 56.102437 
z
" style="fill: #fa8072"/>
    </g>
    <g id="text_30">
     <!-- Rechazo (W ≥ 101) -->
     <g transform="translate(532.329531 63.102437) scale(0.1 -0.1)">
      <defs>
       <path id="DejaVuSans-2265" d="M 678 3175 
L 678 3725 
L 4684 2578 
L 4684 2047 
L 678 897 
L 678 1453 
L 3681 2309 
L 678 3175 
z
M 4684 531 
L 4684 0 
L 678 0 
L 678 531 
L 4684 531 
z
" transform="scale(0.015625)"/>
      </defs>
      <use xlink:href="#DejaVuSans-52"/>
      <use xlink:href="#DejaVuSans-65" transform="translate(64.982422 0)"/>
      <use xlink:href="#DejaVuSans-63" transform="translate(126.505859 0)"/>
      <use xlink:href="#DejaVuSans-68" transform="translate(181.486328 0)"/>
      <use xlink:href="#DejaVuSans-61" transform="translate(244.865234 0)"/>
      <use xlink:href="#DejaVuSans-7a" transform="translate(306.144531 0)"/>
      <use xlink:href="#DejaVuSans-6f" transform="translate(358.634766 0)"/>
      <use xlink:href="#DejaVuSans-20" transform="translate(419.816406 0)"/>
      <use xlink:href="#DejaVuSans-28" transform="translate(451.603516 0)"/>
      <use xlink:href="#DejaVuSans-57" transform="translate(490.617188 0)"/>
      <use xlink:href="#DejaVuSans-20" transform="translate(589.494141 0)"/>
      <use xlink:href="#DejaVuSans-2265" transform="translate(621.28125 0)"/>
      <use xlink:href="#DejaVuSans-20" transform="translate(705.070312 0)"/>
      <use xlink:href="#DejaVuSans-31" transform="translate(736.857422 0)"/>
      <use xlink:href="#DejaVuSans-30" transform="translate(800.480469 0)"/>
      <use xlink:href="#DejaVuSans-31" transform="translate(864.103516 0)"/>
      <use xlink:href="#DejaVuSans-29" transform="translate(927.726562 0)"/>
     </g>
    </g>
   </g>
  </g>
 </g>
 <defs>
  <clipPath id="p4c90302e57">
   <rect x="66.62" y="46.104" width="714.58" height="307.8408"/>
  </clipPath>
 </defs>
</svg>
