<?xml version="1.0" encoding="utf-8" standalone="no"?>
<!DOCTYPE svg PUBLIC "-//W3C//DTD SVG 1.1//EN"
  "http://www.w3.org/Graphics/SVG/1.1/DTD/svg11.dtd">
<svg xmlns:xlink="http://www.w3.org/1999/xlink" width="792pt" height="396pt" viewBox="0 0 792 396" xmlns="http://www.w3.org/2000/svg" version="1.1">
 <metadata>
  <rdf:RDF xmlns:dc="http://purl.org/dc/elements/1.1/" xmlns:cc="http://creativecommons.org/ns#" xmlns:rdf="http://www.w3.org/1999/02/22-rdf-syntax-ns#">
   <cc:Work>
    <dc:type rdf:resource="http://purl.org/dc/dcmitype/StillImage"/>
    <dc:date>2025-05-17T00:19:54.464900</dc:date>
    <dc:format>image/svg+xml</dc:format>
    <dc:creator>
     <cc:Agent>
      <dc:title>Matplotlib v3.10.1, https://matplotlib.org/</dc:title>
     </cc:Agent>
    </dc:creator>
   </cc:Work>
  </rdf:RDF>
 </metadata>
 <defs>
  <style type="text/css">*{stroke-linejoin: round; stroke-linecap: butt}</style>
 </defs>
 <g id="figure_1">
  <g id="patch_1">
   <path d="M 0 396 
L 792 396 
L 792 0 
L 0 0 
z
" style="fill: #ffffff"/>
  </g>
  <g id="axes_1">
   <g id="patch_2">
    <path d="M 54.02 353.9448 
L 781.2 353.9448 
L 781.2 46.104 
L 54.02 46.104 
z
" style="fill: #ffffff"/>
   </g>
   <g id="patch_3">
    <path d="M 194.857233 353.9448 
L 209.228379 353.9448 
L 209.228379 270.178596 
L 194.857233 270.178596 
z
" clip-path="url(#p6e93564274)" style="fill: #90ee90"/>
   </g>
   <g id="patch_4">
    <path d="M 212.821166 353.9448 
L 227.192312 353.9448 
L 227.192312 249.237045 
L 212.821166 249.237045 
z
" clip-path="url(#p6e93564274)" style="fill: #90ee90"/>
   </g>
   <g id="patch_5">
    <path d="M 230.785099 353.9448 
L 245.156245 353.9448 
L 245.156245 228.295494 
L 230.785099 228.295494 
z
" clip-path="url(#p6e93564274)" style="fill: #90ee90"/>
   </g>
   <g id="patch_6">
    <path d="M 248.749032 353.9448 
L 263.120178 353.9448 
L 263.120178 207.353943 
L 248.749032 207.353943 
z
" clip-path="url(#p6e93564274)" style="fill: #90ee90"/>
   </g>
   <g id="patch_7">
    <path d="M 266.712964 353.9448 
L 281.084111 353.9448 
L 281.084111 186.412392 
L 266.712964 186.412392 
z
" clip-path="url(#p6e93564274)" style="fill: #90ee90"/>
   </g>
   <g id="patch_8">
    <path d="M 284.676897 353.9448 
L 299.048043 353.9448 
L 299.048043 165.470841 
L 284.676897 165.470841 
z
" clip-path="url(#p6e93564274)" style="fill: #90ee90"/>
   </g>
   <g id="patch_9">
    <path d="M 302.64083 353.9448 
L 317.011976 353.9448 
L 317.011976 144.52929 
L 302.64083 144.52929 
z
" clip-path="url(#p6e93564274)" style="fill: #90ee90"/>
   </g>
   <g id="patch_10">
    <path d="M 320.604763 353.9448 
L 334.975909 353.9448 
L 334.975909 123.587739 
L 320.604763 123.587739 
z
" clip-path="url(#p6e93564274)" style="fill: #90ee90"/>
   </g>
   <g id="patch_11">
    <path d="M 338.568696 353.9448 
L 352.939842 353.9448 
L 352.939842 102.646188 
L 338.568696 102.646188 
z
" clip-path="url(#p6e93564274)" style="fill: #90ee90"/>
   </g>
   <g id="patch_12">
    <path d="M 356.532628 353.9448 
L 370.903775 353.9448 
L 370.903775 81.704637 
L 356.532628 81.704637 
z
" clip-path="url(#p6e93564274)" style="fill: #90ee90"/>
   </g>
   <g id="patch_13">
    <path d="M 374.496561 353.9448 
L 388.867708 353.9448 
L 388.867708 81.704637 
L 374.496561 81.704637 
z
" clip-path="url(#p6e93564274)" style="fill: #90ee90"/>
   </g>
   <g id="patch_14">
    <path d="M 392.460494 353.9448 
L 406.83164 353.9448 
L 406.83164 81.704637 
L 392.460494 81.704637 
z
" clip-path="url(#p6e93564274)" style="fill: #90ee90"/>
   </g>
   <g id="patch_15">
    <path d="M 410.424427 353.9448 
L 424.795573 353.9448 
L 424.795573 60.763086 
L 410.424427 60.763086 
z
" clip-path="url(#p6e93564274)" style="fill: #90ee90"/>
   </g>
   <g id="patch_16">
    <path d="M 428.38836 353.9448 
L 442.759506 353.9448 
L 442.759506 81.704637 
L 428.38836 81.704637 
z
" clip-path="url(#p6e93564274)" style="fill: #90ee90"/>
   </g>
   <g id="patch_17">
    <path d="M 446.352292 353.9448 
L 460.723439 353.9448 
L 460.723439 81.704637 
L 446.352292 81.704637 
z
" clip-path="url(#p6e93564274)" style="fill: #90ee90"/>
   </g>
   <g id="patch_18">
    <path d="M 464.316225 353.9448 
L 478.687372 353.9448 
L 478.687372 81.704637 
L 464.316225 81.704637 
z
" clip-path="url(#p6e93564274)" style="fill: #90ee90"/>
   </g>
   <g id="patch_19">
    <path d="M 482.280158 353.9448 
L 496.651304 353.9448 
L 496.651304 102.646188 
L 482.280158 102.646188 
z
" clip-path="url(#p6e93564274)" style="fill: #90ee90"/>
   </g>
   <g id="patch_20">
    <path d="M 500.244091 353.9448 
L 514.615237 353.9448 
L 514.615237 123.587739 
L 500.244091 123.587739 
z
" clip-path="url(#p6e93564274)" style="fill: #90ee90"/>
   </g>
   <g id="patch_21">
    <path d="M 518.208024 353.9448 
L 532.57917 353.9448 
L 532.57917 144.52929 
L 518.208024 144.52929 
z
" clip-path="url(#p6e93564274)" style="fill: #90ee90"/>
   </g>
   <g id="patch_22">
    <path d="M 536.171957 353.9448 
L 550.543103 353.9448 
L 550.543103 165.470841 
L 536.171957 165.470841 
z
" clip-path="url(#p6e93564274)" style="fill: #90ee90"/>
   </g>
   <g id="patch_23">
    <path d="M 554.135889 353.9448 
L 568.507036 353.9448 
L 568.507036 186.412392 
L 554.135889 186.412392 
z
" clip-path="url(#p6e93564274)" style="fill: #90ee90"/>
   </g>
   <g id="patch_24">
    <path d="M 572.099822 353.9448 
L 586.470968 353.9448 
L 586.470968 207.353943 
L 572.099822 207.353943 
z
" clip-path="url(#p6e93564274)" style="fill: #90ee90"/>
   </g>
   <g id="patch_25">
    <path d="M 590.063755 353.9448 
L 604.434901 353.9448 
L 604.434901 228.295494 
L 590.063755 228.295494 
z
" clip-path="url(#p6e93564274)" style="fill: #90ee90"/>
   </g>
   <g id="patch_26">
    <path d="M 608.027688 353.9448 
L 622.398834 353.9448 
L 622.398834 249.237045 
L 608.027688 249.237045 
z
" clip-path="url(#p6e93564274)" style="fill: #90ee90"/>
   </g>
   <g id="patch_27">
    <path d="M 625.991621 353.9448 
L 640.362767 353.9448 
L 640.362767 270.178596 
L 625.991621 270.178596 
z
" clip-path="url(#p6e93564274)" style="fill: #90ee90"/>
   </g>
   <g id="patch_28">
    <path d="M 87.073636 353.9448 
L 101.444783 353.9448 
L 101.444783 333.003249 
L 87.073636 333.003249 
z
" clip-path="url(#p6e93564274)" style="fill: #fa8072"/>
   </g>
   <g id="patch_29">
    <path d="M 105.037569 353.9448 
L 119.408715 353.9448 
L 119.408715 333.003249 
L 105.037569 333.003249 
z
" clip-path="url(#p6e93564274)" style="fill: #fa8072"/>
   </g>
   <g id="patch_30">
    <path d="M 123.001502 353.9448 
L 137.372648 353.9448 
L 137.372648 333.003249 
L 123.001502 333.003249 
z
" clip-path="url(#p6e93564274)" style="fill: #fa8072"/>
   </g>
   <g id="patch_31">
    <path d="M 140.965435 353.9448 
L 155.336581 353.9448 
L 155.336581 312.061698 
L 140.965435 312.061698 
z
" clip-path="url(#p6e93564274)" style="fill: #fa8072"/>
   </g>
   <g id="patch_32">
    <path d="M 158.929368 353.9448 
L 173.300514 353.9448 
L 173.300514 312.061698 
L 158.929368 312.061698 
z
" clip-path="url(#p6e93564274)" style="fill: #fa8072"/>
   </g>
   <g id="patch_33">
    <path d="M 176.8933 353.9448 
L 191.264447 353.9448 
L 191.264447 291.120147 
L 176.8933 291.120147 
z
" clip-path="url(#p6e93564274)" style="fill: #fa8072"/>
   </g>
   <g id="patch_34">
    <path d="M 643.955553 353.9448 
L 658.3267 353.9448 
L 658.3267 291.120147 
L 643.955553 291.120147 
z
" clip-path="url(#p6e93564274)" style="fill: #fa8072"/>
   </g>
   <g id="patch_35">
    <path d="M 661.919486 353.9448 
L 676.290632 353.9448 
L 676.290632 312.061698 
L 661.919486 312.061698 
z
" clip-path="url(#p6e93564274)" style="fill: #fa8072"/>
   </g>
   <g id="patch_36">
    <path d="M 679.883419 353.9448 
L 694.254565 353.9448 
L 694.254565 312.061698 
L 679.883419 312.061698 
z
" clip-path="url(#p6e93564274)" style="fill: #fa8072"/>
   </g>
   <g id="patch_37">
    <path d="M 697.847352 353.9448 
L 712.218498 353.9448 
L 712.218498 333.003249 
L 697.847352 333.003249 
z
" clip-path="url(#p6e93564274)" style="fill: #fa8072"/>
   </g>
   <g id="patch_38">
    <path d="M 715.811285 353.9448 
L 730.182431 353.9448 
L 730.182431 333.003249 
L 715.811285 333.003249 
z
" clip-path="url(#p6e93564274)" style="fill: #fa8072"/>
   </g>
   <g id="patch_39">
    <path d="M 733.775217 353.9448 
L 748.146364 353.9448 
L 748.146364 333.003249 
L 733.775217 333.003249 
z
" clip-path="url(#p6e93564274)" style="fill: #fa8072"/>
   </g>
   <g id="matplotlib.axis_1">
    <g id="xtick_1">
     <g id="line2d_1">
      <defs>
       <path id="mbcffaa1646" d="M 0 0 
L 0 3.5 
" style="stroke: #000000; stroke-width: 0.8"/>
      </defs>
      <g>
       <use xlink:href="#mbcffaa1646" x="94.259209" y="353.9448" style="stroke: #000000; stroke-width: 0.8"/>
      </g>
     </g>
     <g id="text_1">
      <!-- 0 -->
      <g transform="translate(91.077959 368.543237) scale(0.1 -0.1)">
       <defs>
        <path id="DejaVuSans-30" d="M 2034 4250 
Q 1547 4250 1301 3770 
Q 1056 3291 1056 2328 
Q 1056 1369 1301 889 
Q 1547 409 2034 409 
Q 2525 409 2770 889 
Q 3016 1369 3016 2328 
Q 3016 3291 2770 3770 
Q 2525 4250 2034 4250 
z
M 2034 4750 
Q 2819 4750 3233 4129 
Q 3647 3509 3647 2328 
Q 3647 1150 3233 529 
Q 2819 -91 2034 -91 
Q 1250 -91 836 529 
Q 422 1150 422 2328 
Q 422 3509 836 4129 
Q 1250 4750 2034 4750 
z
" transform="scale(0.015625)"/>
       </defs>
       <use xlink:href="#DejaVuSans-30"/>
      </g>
     </g>
    </g>
    <g id="xtick_2">
     <g id="line2d_2">
      <g>
       <use xlink:href="#mbcffaa1646" x="184.078874" y="353.9448" style="stroke: #000000; stroke-width: 0.8"/>
      </g>
     </g>
     <g id="text_2">
      <!-- 5 -->
      <g transform="translate(180.897624 368.543237) scale(0.1 -0.1)">
       <defs>
        <path id="DejaVuSans-35" d="M 691 4666 
L 3169 4666 
L 3169 4134 
L 1269 4134 
L 1269 2991 
Q 1406 3038 1543 3061 
Q 1681 3084 1819 3084 
Q 2600 3084 3056 2656 
Q 3513 2228 3513 1497 
Q 3513 744 3044 326 
Q 2575 -91 1722 -91 
Q 1428 -91 1123 -41 
Q 819 9 494 109 
L 494 744 
Q 775 591 1075 516 
Q 1375 441 1709 441 
Q 2250 441 2565 725 
Q 2881 1009 2881 1497 
Q 2881 1984 2565 2268 
Q 2250 2553 1709 2553 
Q 1456 2553 1204 2497 
Q 953 2441 691 2322 
L 691 4666 
z
" transform="scale(0.015625)"/>
       </defs>
       <use xlink:href="#DejaVuSans-35"/>
      </g>
     </g>
    </g>
    <g id="xtick_3">
     <g id="line2d_3">
      <g>
       <use xlink:href="#mbcffaa1646" x="273.898538" y="353.9448" style="stroke: #000000; stroke-width: 0.8"/>
      </g>
     </g>
     <g id="text_3">
      <!-- 10 -->
      <g transform="translate(267.536038 368.543237) scale(0.1 -0.1)">
       <defs>
        <path id="DejaVuSans-31" d="M 794 531 
L 1825 531 
L 1825 4091 
L 703 3866 
L 703 4441 
L 1819 4666 
L 2450 4666 
L 2450 531 
L 3481 531 
L 3481 0 
L 794 0 
L 794 531 
z
" transform="scale(0.015625)"/>
       </defs>
       <use xlink:href="#DejaVuSans-31"/>
       <use xlink:href="#DejaVuSans-30" transform="translate(63.623047 0)"/>
      </g>
     </g>
    </g>
    <g id="xtick_4">
     <g id="line2d_4">
      <g>
       <use xlink:href="#mbcffaa1646" x="363.718202" y="353.9448" style="stroke: #000000; stroke-width: 0.8"/>
      </g>
     </g>
     <g id="text_4">
      <!-- 15 -->
      <g transform="translate(357.355702 368.543237) scale(0.1 -0.1)">
       <use xlink:href="#DejaVuSans-31"/>
       <use xlink:href="#DejaVuSans-35" transform="translate(63.623047 0)"/>
      </g>
     </g>
    </g>
    <g id="xtick_5">
     <g id="line2d_5">
      <g>
       <use xlink:href="#mbcffaa1646" x="453.537866" y="353.9448" style="stroke: #000000; stroke-width: 0.8"/>
      </g>
     </g>
     <g id="text_5">
      <!-- 20 -->
      <g transform="translate(447.175366 368.543237) scale(0.1 -0.1)">
       <defs>
        <path id="DejaVuSans-32" d="M 1228 531 
L 3431 531 
L 3431 0 
L 469 0 
L 469 531 
Q 828 903 1448 1529 
Q 2069 2156 2228 2338 
Q 2531 2678 2651 2914 
Q 2772 3150 2772 3378 
Q 2772 3750 2511 3984 
Q 2250 4219 1831 4219 
Q 1534 4219 1204 4116 
Q 875 4013 500 3803 
L 500 4441 
Q 881 4594 1212 4672 
Q 1544 4750 1819 4750 
Q 2544 4750 2975 4387 
Q 3406 4025 3406 3419 
Q 3406 3131 3298 2873 
Q 3191 2616 2906 2266 
Q 2828 2175 2409 1742 
Q 1991 1309 1228 531 
z
" transform="scale(0.015625)"/>
       </defs>
       <use xlink:href="#DejaVuSans-32"/>
       <use xlink:href="#DejaVuSans-30" transform="translate(63.623047 0)"/>
      </g>
     </g>
    </g>
    <g id="xtick_6">
     <g id="line2d_6">
      <g>
       <use xlink:href="#mbcffaa1646" x="543.35753" y="353.9448" style="stroke: #000000; stroke-width: 0.8"/>
      </g>
     </g>
     <g id="text_6">
      <!-- 25 -->
      <g transform="translate(536.99503 368.543237) scale(0.1 -0.1)">
       <use xlink:href="#DejaVuSans-32"/>
       <use xlink:href="#DejaVuSans-35" transform="translate(63.623047 0)"/>
      </g>
     </g>
    </g>
    <g id="xtick_7">
     <g id="line2d_7">
      <g>
       <use xlink:href="#mbcffaa1646" x="633.177194" y="353.9448" style="stroke: #000000; stroke-width: 0.8"/>
      </g>
     </g>
     <g id="text_7">
      <!-- 30 -->
      <g transform="translate(626.814694 368.543237) scale(0.1 -0.1)">
       <defs>
        <path id="DejaVuSans-33" d="M 2597 2516 
Q 3050 2419 3304 2112 
Q 3559 1806 3559 1356 
Q 3559 666 3084 287 
Q 2609 -91 1734 -91 
Q 1441 -91 1130 -33 
Q 819 25 488 141 
L 488 750 
Q 750 597 1062 519 
Q 1375 441 1716 441 
Q 2309 441 2620 675 
Q 2931 909 2931 1356 
Q 2931 1769 2642 2001 
Q 2353 2234 1838 2234 
L 1294 2234 
L 1294 2753 
L 1863 2753 
Q 2328 2753 2575 2939 
Q 2822 3125 2822 3475 
Q 2822 3834 2567 4026 
Q 2313 4219 1838 4219 
Q 1578 4219 1281 4162 
Q 984 4106 628 3988 
L 628 4550 
Q 988 4650 1302 4700 
Q 1616 4750 1894 4750 
Q 2613 4750 3031 4423 
Q 3450 4097 3450 3541 
Q 3450 3153 3228 2886 
Q 3006 2619 2597 2516 
z
" transform="scale(0.015625)"/>
       </defs>
       <use xlink:href="#DejaVuSans-33"/>
       <use xlink:href="#DejaVuSans-30" transform="translate(63.623047 0)"/>
      </g>
     </g>
    </g>
    <g id="xtick_8">
     <g id="line2d_8">
      <g>
       <use xlink:href="#mbcffaa1646" x="722.996858" y="353.9448" style="stroke: #000000; stroke-width: 0.8"/>
      </g>
     </g>
     <g id="text_8">
      <!-- 35 -->
      <g transform="translate(716.634358 368.543237) scale(0.1 -0.1)">
       <use xlink:href="#DejaVuSans-33"/>
       <use xlink:href="#DejaVuSans-35" transform="translate(63.623047 0)"/>
      </g>
     </g>
    </g>
    <g id="text_9">
     <!-- Estadístico W -->
     <g transform="translate(383.963125 382.221362) scale(0.1 -0.1)">
      <defs>
       <path id="DejaVuSans-45" d="M 628 4666 
L 3578 4666 
L 3578 4134 
L 1259 4134 
L 1259 2753 
L 3481 2753 
L 3481 2222 
L 1259 2222 
L 1259 531 
L 3634 531 
L 3634 0 
L 628 0 
L 628 4666 
z
" transform="scale(0.015625)"/>
       <path id="DejaVuSans-73" d="M 2834 3397 
L 2834 2853 
Q 2591 2978 2328 3040 
Q 2066 3103 1784 3103 
Q 1356 3103 1142 2972 
Q 928 2841 928 2578 
Q 928 2378 1081 2264 
Q 1234 2150 1697 2047 
L 1894 2003 
Q 2506 1872 2764 1633 
Q 3022 1394 3022 966 
Q 3022 478 2636 193 
Q 2250 -91 1575 -91 
Q 1294 -91 989 -36 
Q 684 19 347 128 
L 347 722 
Q 666 556 975 473 
Q 1284 391 1588 391 
Q 1994 391 2212 530 
Q 2431 669 2431 922 
Q 2431 1156 2273 1281 
Q 2116 1406 1581 1522 
L 1381 1569 
Q 847 1681 609 1914 
Q 372 2147 372 2553 
Q 372 3047 722 3315 
Q 1072 3584 1716 3584 
Q 2034 3584 2315 3537 
Q 2597 3491 2834 3397 
z
" transform="scale(0.015625)"/>
       <path id="DejaVuSans-74" d="M 1172 4494 
L 1172 3500 
L 2356 3500 
L 2356 3053 
L 1172 3053 
L 1172 1153 
Q 1172 725 1289 603 
Q 1406 481 1766 481 
L 2356 481 
L 2356 0 
L 1766 0 
Q 1100 0 847 248 
Q 594 497 594 1153 
L 594 3053 
L 172 3053 
L 172 3500 
L 594 3500 
L 594 4494 
L 1172 4494 
z
" transform="scale(0.015625)"/>
       <path id="DejaVuSans-61" d="M 2194 1759 
Q 1497 1759 1228 1600 
Q 959 1441 959 1056 
Q 959 750 1161 570 
Q 1363 391 1709 391 
Q 2188 391 2477 730 
Q 2766 1069 2766 1631 
L 2766 1759 
L 2194 1759 
z
M 3341 1997 
L 3341 0 
L 2766 0 
L 2766 531 
Q 2569 213 2275 61 
Q 1981 -91 1556 -91 
Q 1019 -91 701 211 
Q 384 513 384 1019 
Q 384 1609 779 1909 
Q 1175 2209 1959 2209 
L 2766 2209 
L 2766 2266 
Q 2766 2663 2505 2880 
Q 2244 3097 1772 3097 
Q 1472 3097 1187 3025 
Q 903 2953 641 2809 
L 641 3341 
Q 956 3463 1253 3523 
Q 1550 3584 1831 3584 
Q 2591 3584 2966 3190 
Q 3341 2797 3341 1997 
z
" transform="scale(0.015625)"/>
       <path id="DejaVuSans-64" d="M 2906 2969 
L 2906 4863 
L 3481 4863 
L 3481 0 
L 2906 0 
L 2906 525 
Q 2725 213 2448 61 
Q 2172 -91 1784 -91 
Q 1150 -91 751 415 
Q 353 922 353 1747 
Q 353 2572 751 3078 
Q 1150 3584 1784 3584 
Q 2172 3584 2448 3432 
Q 2725 3281 2906 2969 
z
M 947 1747 
Q 947 1113 1208 752 
Q 1469 391 1925 391 
Q 2381 391 2643 752 
Q 2906 1113 2906 1747 
Q 2906 2381 2643 2742 
Q 2381 3103 1925 3103 
Q 1469 3103 1208 2742 
Q 947 2381 947 1747 
z
" transform="scale(0.015625)"/>
       <path id="DejaVuSans-ed" d="M 1322 5119 
L 1944 5119 
L 926 3944 
L 447 3944 
L 1322 5119 
z
M 603 3500 
L 1178 3500 
L 1178 0 
L 603 0 
L 603 3500 
z
M 891 3584 
L 891 3584 
z
" transform="scale(0.015625)"/>
       <path id="DejaVuSans-69" d="M 603 3500 
L 1178 3500 
L 1178 0 
L 603 0 
L 603 3500 
z
M 603 4863 
L 1178 4863 
L 1178 4134 
L 603 4134 
L 603 4863 
z
" transform="scale(0.015625)"/>
       <path id="DejaVuSans-63" d="M 3122 3366 
L 3122 2828 
Q 2878 2963 2633 3030 
Q 2388 3097 2138 3097 
Q 1578 3097 1268 2742 
Q 959 2388 959 1747 
Q 959 1106 1268 751 
Q 1578 397 2138 397 
Q 2388 397 2633 464 
Q 2878 531 3122 666 
L 3122 134 
Q 2881 22 2623 -34 
Q 2366 -91 2075 -91 
Q 1284 -91 818 406 
Q 353 903 353 1747 
Q 353 2603 823 3093 
Q 1294 3584 2113 3584 
Q 2378 3584 2631 3529 
Q 2884 3475 3122 3366 
z
" transform="scale(0.015625)"/>
       <path id="DejaVuSans-6f" d="M 1959 3097 
Q 1497 3097 1228 2736 
Q 959 2375 959 1747 
Q 959 1119 1226 758 
Q 1494 397 1959 397 
Q 2419 397 2687 759 
Q 2956 1122 2956 1747 
Q 2956 2369 2687 2733 
Q 2419 3097 1959 3097 
z
M 1959 3584 
Q 2709 3584 3137 3096 
Q 3566 2609 3566 1747 
Q 3566 888 3137 398 
Q 2709 -91 1959 -91 
Q 1206 -91 779 398 
Q 353 888 353 1747 
Q 353 2609 779 3096 
Q 1206 3584 1959 3584 
z
" transform="scale(0.015625)"/>
       <path id="DejaVuSans-20" transform="scale(0.015625)"/>
       <path id="DejaVuSans-57" d="M 213 4666 
L 850 4666 
L 1831 722 
L 2809 4666 
L 3519 4666 
L 4500 722 
L 5478 4666 
L 6119 4666 
L 4947 0 
L 4153 0 
L 3169 4050 
L 2175 0 
L 1381 0 
L 213 4666 
z
" transform="scale(0.015625)"/>
      </defs>
      <use xlink:href="#DejaVuSans-45"/>
      <use xlink:href="#DejaVuSans-73" transform="translate(63.183594 0)"/>
      <use xlink:href="#DejaVuSans-74" transform="translate(115.283203 0)"/>
      <use xlink:href="#DejaVuSans-61" transform="translate(154.492188 0)"/>
      <use xlink:href="#DejaVuSans-64" transform="translate(215.771484 0)"/>
      <use xlink:href="#DejaVuSans-ed" transform="translate(279.248047 0)"/>
      <use xlink:href="#DejaVuSans-73" transform="translate(307.03125 0)"/>
      <use xlink:href="#DejaVuSans-74" transform="translate(359.130859 0)"/>
      <use xlink:href="#DejaVuSans-69" transform="translate(398.339844 0)"/>
      <use xlink:href="#DejaVuSans-63" transform="translate(426.123047 0)"/>
      <use xlink:href="#DejaVuSans-6f" transform="translate(481.103516 0)"/>
      <use xlink:href="#DejaVuSans-20" transform="translate(542.285156 0)"/>
      <use xlink:href="#DejaVuSans-57" transform="translate(574.072266 0)"/>
     </g>
    </g>
   </g>
   <g id="matplotlib.axis_2">
    <g id="ytick_1">
     <g id="line2d_9">
      <defs>
       <path id="m2fae442afa" d="M 0 0 
L -3.5 0 
" style="stroke: #000000; stroke-width: 0.8"/>
      </defs>
      <g>
       <use xlink:href="#m2fae442afa" x="54.02" y="353.9448" style="stroke: #000000; stroke-width: 0.8"/>
      </g>
     </g>
     <g id="text_10">
      <!-- 0.00 -->
      <g transform="translate(24.754375 357.744019) scale(0.1 -0.1)">
       <defs>
        <path id="DejaVuSans-2e" d="M 684 794 
L 1344 794 
L 1344 0 
L 684 0 
L 684 794 
z
" transform="scale(0.015625)"/>
       </defs>
       <use xlink:href="#DejaVuSans-30"/>
       <use xlink:href="#DejaVuSans-2e" transform="translate(63.623047 0)"/>
       <use xlink:href="#DejaVuSans-30" transform="translate(95.410156 0)"/>
       <use xlink:href="#DejaVuSans-30" transform="translate(159.033203 0)"/>
      </g>
     </g>
    </g>
    <g id="ytick_2">
     <g id="line2d_10">
      <g>
       <use xlink:href="#m2fae442afa" x="54.02" y="300.334429" style="stroke: #000000; stroke-width: 0.8"/>
      </g>
     </g>
     <g id="text_11">
      <!-- 0.01 -->
      <g transform="translate(24.754375 304.133648) scale(0.1 -0.1)">
       <use xlink:href="#DejaVuSans-30"/>
       <use xlink:href="#DejaVuSans-2e" transform="translate(63.623047 0)"/>
       <use xlink:href="#DejaVuSans-30" transform="translate(95.410156 0)"/>
       <use xlink:href="#DejaVuSans-31" transform="translate(159.033203 0)"/>
      </g>
     </g>
    </g>
    <g id="ytick_3">
     <g id="line2d_11">
      <g>
       <use xlink:href="#m2fae442afa" x="54.02" y="246.724059" style="stroke: #000000; stroke-width: 0.8"/>
      </g>
     </g>
     <g id="text_12">
      <!-- 0.02 -->
      <g transform="translate(24.754375 250.523278) scale(0.1 -0.1)">
       <use xlink:href="#DejaVuSans-30"/>
       <use xlink:href="#DejaVuSans-2e" transform="translate(63.623047 0)"/>
       <use xlink:href="#DejaVuSans-30" transform="translate(95.410156 0)"/>
       <use xlink:href="#DejaVuSans-32" transform="translate(159.033203 0)"/>
      </g>
     </g>
    </g>
    <g id="ytick_4">
     <g id="line2d_12">
      <g>
       <use xlink:href="#m2fae442afa" x="54.02" y="193.113688" style="stroke: #000000; stroke-width: 0.8"/>
      </g>
     </g>
     <g id="text_13">
      <!-- 0.03 -->
      <g transform="translate(24.754375 196.912907) scale(0.1 -0.1)">
       <use xlink:href="#DejaVuSans-30"/>
       <use xlink:href="#DejaVuSans-2e" transform="translate(63.623047 0)"/>
       <use xlink:href="#DejaVuSans-30" transform="translate(95.410156 0)"/>
       <use xlink:href="#DejaVuSans-33" transform="translate(159.033203 0)"/>
      </g>
     </g>
    </g>
    <g id="ytick_5">
     <g id="line2d_13">
      <g>
       <use xlink:href="#m2fae442afa" x="54.02" y="139.503318" style="stroke: #000000; stroke-width: 0.8"/>
      </g>
     </g>
     <g id="text_14">
      <!-- 0.04 -->
      <g transform="translate(24.754375 143.302536) scale(0.1 -0.1)">
       <defs>
        <path id="DejaVuSans-34" d="M 2419 4116 
L 825 1625 
L 2419 1625 
L 2419 4116 
z
M 2253 4666 
L 3047 4666 
L 3047 1625 
L 3713 1625 
L 3713 1100 
L 3047 1100 
L 3047 0 
L 2419 0 
L 2419 1100 
L 313 1100 
L 313 1709 
L 2253 4666 
z
" transform="scale(0.015625)"/>
       </defs>
       <use xlink:href="#DejaVuSans-30"/>
       <use xlink:href="#DejaVuSans-2e" transform="translate(63.623047 0)"/>
       <use xlink:href="#DejaVuSans-30" transform="translate(95.410156 0)"/>
       <use xlink:href="#DejaVuSans-34" transform="translate(159.033203 0)"/>
      </g>
     </g>
    </g>
    <g id="ytick_6">
     <g id="line2d_14">
      <g>
       <use xlink:href="#m2fae442afa" x="54.02" y="85.892947" style="stroke: #000000; stroke-width: 0.8"/>
      </g>
     </g>
     <g id="text_15">
      <!-- 0.05 -->
      <g transform="translate(24.754375 89.692166) scale(0.1 -0.1)">
       <use xlink:href="#DejaVuSans-30"/>
       <use xlink:href="#DejaVuSans-2e" transform="translate(63.623047 0)"/>
       <use xlink:href="#DejaVuSans-30" transform="translate(95.410156 0)"/>
       <use xlink:href="#DejaVuSans-35" transform="translate(159.033203 0)"/>
      </g>
     </g>
    </g>
    <g id="text_16">
     <!-- Probabilidad -->
     <g transform="translate(18.674688 230.946275) rotate(-90) scale(0.1 -0.1)">
      <defs>
       <path id="DejaVuSans-50" d="M 1259 4147 
L 1259 2394 
L 2053 2394 
Q 2494 2394 2734 2622 
Q 2975 2850 2975 3272 
Q 2975 3691 2734 3919 
Q 2494 4147 2053 4147 
L 1259 4147 
z
M 628 4666 
L 2053 4666 
Q 2838 4666 3239 4311 
Q 3641 3956 3641 3272 
Q 3641 2581 3239 2228 
Q 2838 1875 2053 1875 
L 1259 1875 
L 1259 0 
L 628 0 
L 628 4666 
z
" transform="scale(0.015625)"/>
       <path id="DejaVuSans-72" d="M 2631 2963 
Q 2534 3019 2420 3045 
Q 2306 3072 2169 3072 
Q 1681 3072 1420 2755 
Q 1159 2438 1159 1844 
L 1159 0 
L 581 0 
L 581 3500 
L 1159 3500 
L 1159 2956 
Q 1341 3275 1631 3429 
Q 1922 3584 2338 3584 
Q 2397 3584 2469 3576 
Q 2541 3569 2628 3553 
L 2631 2963 
z
" transform="scale(0.015625)"/>
       <path id="DejaVuSans-62" d="M 3116 1747 
Q 3116 2381 2855 2742 
Q 2594 3103 2138 3103 
Q 1681 3103 1420 2742 
Q 1159 2381 1159 1747 
Q 1159 1113 1420 752 
Q 1681 391 2138 391 
Q 2594 391 2855 752 
Q 3116 1113 3116 1747 
z
M 1159 2969 
Q 1341 3281 1617 3432 
Q 1894 3584 2278 3584 
Q 2916 3584 3314 3078 
Q 3713 2572 3713 1747 
Q 3713 922 3314 415 
Q 2916 -91 2278 -91 
Q 1894 -91 1617 61 
Q 1341 213 1159 525 
L 1159 0 
L 581 0 
L 581 4863 
L 1159 4863 
L 1159 2969 
z
" transform="scale(0.015625)"/>
       <path id="DejaVuSans-6c" d="M 603 4863 
L 1178 4863 
L 1178 0 
L 603 0 
L 603 4863 
z
" transform="scale(0.015625)"/>
      </defs>
      <use xlink:href="#DejaVuSans-50"/>
      <use xlink:href="#DejaVuSans-72" transform="translate(58.552734 0)"/>
      <use xlink:href="#DejaVuSans-6f" transform="translate(97.416016 0)"/>
      <use xlink:href="#DejaVuSans-62" transform="translate(158.597656 0)"/>
      <use xlink:href="#DejaVuSans-61" transform="translate(222.074219 0)"/>
      <use xlink:href="#DejaVuSans-62" transform="translate(283.353516 0)"/>
      <use xlink:href="#DejaVuSans-69" transform="translate(346.830078 0)"/>
      <use xlink:href="#DejaVuSans-6c" transform="translate(374.613281 0)"/>
      <use xlink:href="#DejaVuSans-69" transform="translate(402.396484 0)"/>
      <use xlink:href="#DejaVuSans-64" transform="translate(430.179688 0)"/>
      <use xlink:href="#DejaVuSans-61" transform="translate(493.65625 0)"/>
      <use xlink:href="#DejaVuSans-64" transform="translate(554.935547 0)"/>
     </g>
    </g>
   </g>
   <g id="line2d_15">
    <path d="M 94.259209 353.9448 
L 94.259209 46.104 
" clip-path="url(#p6e93564274)" style="fill: none; stroke-dasharray: 7.4,3.2; stroke-dashoffset: 0; stroke: #0000ff; stroke-width: 2"/>
   </g>
   <g id="line2d_16">
    <path d="M 184.078874 353.9448 
L 184.078874 46.104 
" clip-path="url(#p6e93564274)" style="fill: none; stroke-dasharray: 12.8,3.2,2,3.2; stroke-dashoffset: 0; stroke: #ff0000; stroke-width: 2"/>
   </g>
   <g id="line2d_17">
    <path d="M 651.141126 353.9448 
L 651.141126 46.104 
" clip-path="url(#p6e93564274)" style="fill: none; stroke-dasharray: 12.8,3.2,2,3.2; stroke-dashoffset: 0; stroke: #ff0000; stroke-width: 2"/>
   </g>
   <g id="patch_40">
    <path d="M 54.02 353.9448 
L 54.02 46.104 
" style="fill: none; stroke: #000000; stroke-width: 0.8; stroke-linejoin: miter; stroke-linecap: square"/>
   </g>
   <g id="patch_41">
    <path d="M 781.2 353.9448 
L 781.2 46.104 
" style="fill: none; stroke: #000000; stroke-width: 0.8; stroke-linejoin: miter; stroke-linecap: square"/>
   </g>
   <g id="patch_42">
    <path d="M 54.02 353.9448 
L 781.2 353.9448 
" style="fill: none; stroke: #000000; stroke-width: 0.8; stroke-linejoin: miter; stroke-linecap: square"/>
   </g>
   <g id="patch_43">
    <path d="M 54.02 46.104 
L 781.2 46.104 
" style="fill: none; stroke: #000000; stroke-width: 0.8; stroke-linejoin: miter; stroke-linecap: square"/>
   </g>
   <g id="text_17">
    <g id="patch_44">
     <path d="M 59.194834 387.988998 
L 129.323584 387.988998 
L 129.323584 368.455248 
L 59.194834 368.455248 
z
" style="fill: #ffffff; opacity: 0.85; stroke: #0000ff; stroke-linejoin: miter"/>
    </g>
    <!-- W obs = 0 -->
    <g style="fill: #0000ff" transform="translate(63.154834 381.533373) scale(0.12 -0.12)">
     <defs>
      <path id="DejaVuSans-3d" d="M 678 2906 
L 4684 2906 
L 4684 2381 
L 678 2381 
L 678 2906 
z
M 678 1631 
L 4684 1631 
L 4684 1100 
L 678 1100 
L 678 1631 
z
" transform="scale(0.015625)"/>
     </defs>
     <use xlink:href="#DejaVuSans-57"/>
     <use xlink:href="#DejaVuSans-20" transform="translate(98.876953 0)"/>
     <use xlink:href="#DejaVuSans-6f" transform="translate(130.664062 0)"/>
     <use xlink:href="#DejaVuSans-62" transform="translate(191.845703 0)"/>
     <use xlink:href="#DejaVuSans-73" transform="translate(255.322266 0)"/>
     <use xlink:href="#DejaVuSans-20" transform="translate(307.421875 0)"/>
     <use xlink:href="#DejaVuSans-3d" transform="translate(339.208984 0)"/>
     <use xlink:href="#DejaVuSans-20" transform="translate(422.998047 0)"/>
     <use xlink:href="#DejaVuSans-30" transform="translate(454.785156 0)"/>
    </g>
   </g>
   <g id="text_18">
    <g id="patch_45">
     <path d="M 198.716842 192.196865 
L 198.716842 134.45624 
L 169.440905 134.45624 
L 169.440905 192.196865 
z
" style="fill: #ffffff; opacity: 0.7; stroke: #ff0000; stroke-linejoin: miter"/>
    </g>
    <!-- Crítico izq -->
    <g style="fill: #ff0000" transform="translate(181.439342 188.196865) rotate(-90) scale(0.1 -0.1)">
     <defs>
      <path id="DejaVuSans-43" d="M 4122 4306 
L 4122 3641 
Q 3803 3938 3442 4084 
Q 3081 4231 2675 4231 
Q 1875 4231 1450 3742 
Q 1025 3253 1025 2328 
Q 1025 1406 1450 917 
Q 1875 428 2675 428 
Q 3081 428 3442 575 
Q 3803 722 4122 1019 
L 4122 359 
Q 3791 134 3420 21 
Q 3050 -91 2638 -91 
Q 1578 -91 968 557 
Q 359 1206 359 2328 
Q 359 3453 968 4101 
Q 1578 4750 2638 4750 
Q 3056 4750 3426 4639 
Q 3797 4528 4122 4306 
z
" transform="scale(0.015625)"/>
      <path id="DejaVuSans-7a" d="M 353 3500 
L 3084 3500 
L 3084 2975 
L 922 459 
L 3084 459 
L 3084 0 
L 275 0 
L 275 525 
L 2438 3041 
L 353 3041 
L 353 3500 
z
" transform="scale(0.015625)"/>
      <path id="DejaVuSans-71" d="M 947 1747 
Q 947 1113 1208 752 
Q 1469 391 1925 391 
Q 2381 391 2643 752 
Q 2906 1113 2906 1747 
Q 2906 2381 2643 2742 
Q 2381 3103 1925 3103 
Q 1469 3103 1208 2742 
Q 947 2381 947 1747 
z
M 2906 525 
Q 2725 213 2448 61 
Q 2172 -91 1784 -91 
Q 1150 -91 751 415 
Q 353 922 353 1747 
Q 353 2572 751 3078 
Q 1150 3584 1784 3584 
Q 2172 3584 2448 3432 
Q 2725 3281 2906 2969 
L 2906 3500 
L 3481 3500 
L 3481 -1331 
L 2906 -1331 
L 2906 525 
z
" transform="scale(0.015625)"/>
     </defs>
     <use xlink:href="#DejaVuSans-43"/>
     <use xlink:href="#DejaVuSans-72" transform="translate(69.824219 0)"/>
     <use xlink:href="#DejaVuSans-ed" transform="translate(110.9375 0)"/>
     <use xlink:href="#DejaVuSans-74" transform="translate(138.720703 0)"/>
     <use xlink:href="#DejaVuSans-69" transform="translate(177.929688 0)"/>
     <use xlink:href="#DejaVuSans-63" transform="translate(205.712891 0)"/>
     <use xlink:href="#DejaVuSans-6f" transform="translate(260.693359 0)"/>
     <use xlink:href="#DejaVuSans-20" transform="translate(321.875 0)"/>
     <use xlink:href="#DejaVuSans-69" transform="translate(353.662109 0)"/>
     <use xlink:href="#DejaVuSans-7a" transform="translate(381.445312 0)"/>
     <use xlink:href="#DejaVuSans-71" transform="translate(433.935547 0)"/>
    </g>
    <!-- 5 -->
    <g style="fill: #ff0000" transform="translate(192.637155 166.507802) rotate(-90) scale(0.1 -0.1)">
     <use xlink:href="#DejaVuSans-35"/>
    </g>
   </g>
   <g id="text_19">
    <g id="patch_46">
     <path d="M 665.579095 194.434365 
L 665.579095 134.45624 
L 636.703158 134.45624 
L 636.703158 194.434365 
z
" style="fill: #ffffff; opacity: 0.7; stroke: #ff0000; stroke-linejoin: miter"/>
    </g>
    <!-- Crítico der -->
    <g style="fill: #ff0000" transform="translate(648.301595 190.434365) rotate(-90) scale(0.1 -0.1)">
     <defs>
      <path id="DejaVuSans-65" d="M 3597 1894 
L 3597 1613 
L 953 1613 
Q 991 1019 1311 708 
Q 1631 397 2203 397 
Q 2534 397 2845 478 
Q 3156 559 3463 722 
L 3463 178 
Q 3153 47 2828 -22 
Q 2503 -91 2169 -91 
Q 1331 -91 842 396 
Q 353 884 353 1716 
Q 353 2575 817 3079 
Q 1281 3584 2069 3584 
Q 2775 3584 3186 3129 
Q 3597 2675 3597 1894 
z
M 3022 2063 
Q 3016 2534 2758 2815 
Q 2500 3097 2075 3097 
Q 1594 3097 1305 2825 
Q 1016 2553 972 2059 
L 3022 2063 
z
" transform="scale(0.015625)"/>
     </defs>
     <use xlink:href="#DejaVuSans-43"/>
     <use xlink:href="#DejaVuSans-72" transform="translate(69.824219 0)"/>
     <use xlink:href="#DejaVuSans-ed" transform="translate(110.9375 0)"/>
     <use xlink:href="#DejaVuSans-74" transform="translate(138.720703 0)"/>
     <use xlink:href="#DejaVuSans-69" transform="translate(177.929688 0)"/>
     <use xlink:href="#DejaVuSans-63" transform="translate(205.712891 0)"/>
     <use xlink:href="#DejaVuSans-6f" transform="translate(260.693359 0)"/>
     <use xlink:href="#DejaVuSans-20" transform="translate(321.875 0)"/>
     <use xlink:href="#DejaVuSans-64" transform="translate(353.662109 0)"/>
     <use xlink:href="#DejaVuSans-65" transform="translate(417.138672 0)"/>
     <use xlink:href="#DejaVuSans-72" transform="translate(478.662109 0)"/>
    </g>
    <!-- 31 -->
    <g style="fill: #ff0000" transform="translate(659.499408 170.807802) rotate(-90) scale(0.1 -0.1)">
     <use xlink:href="#DejaVuSans-33"/>
     <use xlink:href="#DejaVuSans-31" transform="translate(63.623047 0)"/>
    </g>
   </g>
   <g id="text_20">
    <g id="patch_47">
     <path d="M 57.3318 61.794849 
L 98.174925 61.794849 
L 98.174925 42.261099 
L 57.3318 42.261099 
z
" style="fill: #ffffff; opacity: 0.8; stroke: #000000; stroke-linejoin: miter"/>
    </g>
    <!-- n = 8 -->
    <g transform="translate(61.2918 55.339224) scale(0.12 -0.12)">
     <defs>
      <path id="DejaVuSans-6e" d="M 3513 2113 
L 3513 0 
L 2938 0 
L 2938 2094 
Q 2938 2591 2744 2837 
Q 2550 3084 2163 3084 
Q 1697 3084 1428 2787 
Q 1159 2491 1159 1978 
L 1159 0 
L 581 0 
L 581 3500 
L 1159 3500 
L 1159 2956 
Q 1366 3272 1645 3428 
Q 1925 3584 2291 3584 
Q 2894 3584 3203 3211 
Q 3513 2838 3513 2113 
z
" transform="scale(0.015625)"/>
      <path id="DejaVuSans-38" d="M 2034 2216 
Q 1584 2216 1326 1975 
Q 1069 1734 1069 1313 
Q 1069 891 1326 650 
Q 1584 409 2034 409 
Q 2484 409 2743 651 
Q 3003 894 3003 1313 
Q 3003 1734 2745 1975 
Q 2488 2216 2034 2216 
z
M 1403 2484 
Q 997 2584 770 2862 
Q 544 3141 544 3541 
Q 544 4100 942 4425 
Q 1341 4750 2034 4750 
Q 2731 4750 3128 4425 
Q 3525 4100 3525 3541 
Q 3525 3141 3298 2862 
Q 3072 2584 2669 2484 
Q 3125 2378 3379 2068 
Q 3634 1759 3634 1313 
Q 3634 634 3220 271 
Q 2806 -91 2034 -91 
Q 1263 -91 848 271 
Q 434 634 434 1313 
Q 434 1759 690 2068 
Q 947 2378 1403 2484 
z
M 1172 3481 
Q 1172 3119 1398 2916 
Q 1625 2713 2034 2713 
Q 2441 2713 2670 2916 
Q 2900 3119 2900 3481 
Q 2900 3844 2670 4047 
Q 2441 4250 2034 4250 
Q 1625 4250 1398 4047 
Q 1172 3844 1172 3481 
z
" transform="scale(0.015625)"/>
     </defs>
     <use xlink:href="#DejaVuSans-6e"/>
     <use xlink:href="#DejaVuSans-20" transform="translate(63.378906 0)"/>
     <use xlink:href="#DejaVuSans-3d" transform="translate(95.166016 0)"/>
     <use xlink:href="#DejaVuSans-20" transform="translate(178.955078 0)"/>
     <use xlink:href="#DejaVuSans-38" transform="translate(210.742188 0)"/>
    </g>
   </g>
   <g id="text_21">
    <g id="patch_48">
     <path d="M 57.3318 92.578929 
L 122.778675 92.578929 
L 122.778675 59.607804 
L 57.3318 59.607804 
z
" style="fill: #ffffff; opacity: 0.8; stroke: #000000; stroke-linejoin: miter"/>
    </g>
    <!-- α = 0.05 -->
    <g transform="translate(61.2918 72.685929) scale(0.12 -0.12)">
     <defs>
      <path id="DejaVuSans-3b1" d="M 2644 1628 
L 2506 2350 
Q 2366 3091 1809 3091 
Q 1391 3091 1200 2747 
Q 959 2316 959 1747 
Q 959 1059 1194 731 
Q 1431 397 1809 397 
Q 2228 397 2453 1063 
L 2644 1628 
z
M 2966 2584 
L 3275 3500 
L 3788 3500 
L 3147 1603 
L 3272 919 
Q 3300 766 3409 638 
Q 3538 488 3638 488 
L 3913 488 
L 3913 0 
L 3569 0 
Q 3275 0 3013 263 
Q 2884 394 2831 669 
Q 2688 322 2394 50 
Q 2256 -78 1809 -78 
Q 1075 -78 719 397 
Q 353 888 353 1747 
Q 353 2666 750 3097 
Q 1191 3578 1809 3578 
Q 2781 3578 2966 2584 
z
" transform="scale(0.015625)"/>
     </defs>
     <use xlink:href="#DejaVuSans-3b1"/>
     <use xlink:href="#DejaVuSans-20" transform="translate(65.917969 0)"/>
     <use xlink:href="#DejaVuSans-3d" transform="translate(97.705078 0)"/>
     <use xlink:href="#DejaVuSans-20" transform="translate(181.494141 0)"/>
     <use xlink:href="#DejaVuSans-30" transform="translate(213.28125 0)"/>
     <use xlink:href="#DejaVuSans-2e" transform="translate(276.904297 0)"/>
     <use xlink:href="#DejaVuSans-30" transform="translate(308.691406 0)"/>
     <use xlink:href="#DejaVuSans-35" transform="translate(372.314453 0)"/>
    </g>
    <!-- Dos colas -->
    <g transform="translate(61.2918 86.123304) scale(0.12 -0.12)">
     <defs>
      <path id="DejaVuSans-44" d="M 1259 4147 
L 1259 519 
L 2022 519 
Q 2988 519 3436 956 
Q 3884 1394 3884 2338 
Q 3884 3275 3436 3711 
Q 2988 4147 2022 4147 
L 1259 4147 
z
M 628 4666 
L 1925 4666 
Q 3281 4666 3915 4102 
Q 4550 3538 4550 2338 
Q 4550 1131 3912 565 
Q 3275 0 1925 0 
L 628 0 
L 628 4666 
z
" transform="scale(0.015625)"/>
     </defs>
     <use xlink:href="#DejaVuSans-44"/>
     <use xlink:href="#DejaVuSans-6f" transform="translate(77.001953 0)"/>
     <use xlink:href="#DejaVuSans-73" transform="translate(138.183594 0)"/>
     <use xlink:href="#DejaVuSans-20" transform="translate(190.283203 0)"/>
     <use xlink:href="#DejaVuSans-63" transform="translate(222.070312 0)"/>
     <use xlink:href="#DejaVuSans-6f" transform="translate(277.050781 0)"/>
     <use xlink:href="#DejaVuSans-6c" transform="translate(338.232422 0)"/>
     <use xlink:href="#DejaVuSans-61" transform="translate(366.015625 0)"/>
     <use xlink:href="#DejaVuSans-73" transform="translate(427.294922 0)"/>
    </g>
   </g>
   <g id="text_22">
    <g id="patch_49">
     <path d="M 668.622575 61.794849 
L 777.8882 61.794849 
L 777.8882 42.261099 
L 668.622575 42.261099 
z
" style="fill: #ffffff; opacity: 0.8; stroke: #000000; stroke-linejoin: miter"/>
    </g>
    <!-- Valor p = 0.0078 -->
    <g transform="translate(672.582575 55.339224) scale(0.12 -0.12)">
     <defs>
      <path id="DejaVuSans-56" d="M 1831 0 
L 50 4666 
L 709 4666 
L 2188 738 
L 3669 4666 
L 4325 4666 
L 2547 0 
L 1831 0 
z
" transform="scale(0.015625)"/>
      <path id="DejaVuSans-70" d="M 1159 525 
L 1159 -1331 
L 581 -1331 
L 581 3500 
L 1159 3500 
L 1159 2969 
Q 1341 3281 1617 3432 
Q 1894 3584 2278 3584 
Q 2916 3584 3314 3078 
Q 3713 2572 3713 1747 
Q 3713 922 3314 415 
Q 2916 -91 2278 -91 
Q 1894 -91 1617 61 
Q 1341 213 1159 525 
z
M 3116 1747 
Q 3116 2381 2855 2742 
Q 2594 3103 2138 3103 
Q 1681 3103 1420 2742 
Q 1159 2381 1159 1747 
Q 1159 1113 1420 752 
Q 1681 391 2138 391 
Q 2594 391 2855 752 
Q 3116 1113 3116 1747 
z
" transform="scale(0.015625)"/>
      <path id="DejaVuSans-37" d="M 525 4666 
L 3525 4666 
L 3525 4397 
L 1831 0 
L 1172 0 
L 2766 4134 
L 525 4134 
L 525 4666 
z
" transform="scale(0.015625)"/>
     </defs>
     <use xlink:href="#DejaVuSans-56"/>
     <use xlink:href="#DejaVuSans-61" transform="translate(60.658203 0)"/>
     <use xlink:href="#DejaVuSans-6c" transform="translate(121.9375 0)"/>
     <use xlink:href="#DejaVuSans-6f" transform="translate(149.720703 0)"/>
     <use xlink:href="#DejaVuSans-72" transform="translate(210.902344 0)"/>
     <use xlink:href="#DejaVuSans-20" transform="translate(252.015625 0)"/>
     <use xlink:href="#DejaVuSans-70" transform="translate(283.802734 0)"/>
     <use xlink:href="#DejaVuSans-20" transform="translate(347.279297 0)"/>
     <use xlink:href="#DejaVuSans-3d" transform="translate(379.066406 0)"/>
     <use xlink:href="#DejaVuSans-20" transform="translate(462.855469 0)"/>
     <use xlink:href="#DejaVuSans-30" transform="translate(494.642578 0)"/>
     <use xlink:href="#DejaVuSans-2e" transform="translate(558.265625 0)"/>
     <use xlink:href="#DejaVuSans-30" transform="translate(590.052734 0)"/>
     <use xlink:href="#DejaVuSans-30" transform="translate(653.675781 0)"/>
     <use xlink:href="#DejaVuSans-37" transform="translate(717.298828 0)"/>
     <use xlink:href="#DejaVuSans-38" transform="translate(780.921875 0)"/>
    </g>
   </g>
   <g id="text_23">
    <g id="patch_50">
     <path d="M 663.797887 345.05276 
L 773.9282 345.05276 
Q 780.4282 345.05276 780.4282 338.55276 
L 780.4282 311.414041 
Q 780.4282 304.914041 773.9282 304.914041 
L 663.797887 304.914041 
Q 657.297887 304.914041 657.297887 311.414041 
L 657.297887 338.55276 
Q 657.297887 345.05276 663.797887 345.05276 
z
" style="fill: #ffffe0; opacity: 0.95; stroke: #ffa500; stroke-linejoin: miter"/>
    </g>
    <!-- Validación de H₀: -->
    <g transform="translate(663.797887 321.29201) scale(0.13 -0.13)">
     <defs>
      <path id="DejaVuSans-f3" d="M 1959 3097 
Q 1497 3097 1228 2736 
Q 959 2375 959 1747 
Q 959 1119 1226 758 
Q 1494 397 1959 397 
Q 2419 397 2687 759 
Q 2956 1122 2956 1747 
Q 2956 2369 2687 2733 
Q 2419 3097 1959 3097 
z
M 1959 3584 
Q 2709 3584 3137 3096 
Q 3566 2609 3566 1747 
Q 3566 888 3137 398 
Q 2709 -91 1959 -91 
Q 1206 -91 779 398 
Q 353 888 353 1747 
Q 353 2609 779 3096 
Q 1206 3584 1959 3584 
z
M 2394 5119 
L 3016 5119 
L 1998 3944 
L 1519 3944 
L 2394 5119 
z
" transform="scale(0.015625)"/>
      <path id="DejaVuSans-48" d="M 628 4666 
L 1259 4666 
L 1259 2753 
L 3553 2753 
L 3553 4666 
L 4184 4666 
L 4184 0 
L 3553 0 
L 3553 2222 
L 1259 2222 
L 1259 0 
L 628 0 
L 628 4666 
z
" transform="scale(0.015625)"/>
      <path id="DejaVuSans-2080" d="M 1781 2091 
Q 1625 2360 1309 2360 
Q 994 2360 838 2091 
Q 678 1822 678 1285 
Q 678 744 838 476 
Q 994 207 1309 207 
Q 1625 207 1781 476 
Q 1941 744 1941 1285 
Q 1941 1822 1781 2091 
z
M 1309 2638 
Q 1813 2638 2078 2291 
Q 2344 1944 2344 1285 
Q 2344 622 2078 275 
Q 1813 -71 1309 -71 
Q 803 -71 537 275 
Q 272 622 272 1285 
Q 272 1944 537 2291 
Q 803 2638 1309 2638 
z
" transform="scale(0.015625)"/>
      <path id="DejaVuSans-3a" d="M 750 794 
L 1409 794 
L 1409 0 
L 750 0 
L 750 794 
z
M 750 3309 
L 1409 3309 
L 1409 2516 
L 750 2516 
L 750 3309 
z
" transform="scale(0.015625)"/>
     </defs>
     <use xlink:href="#DejaVuSans-56"/>
     <use xlink:href="#DejaVuSans-61" transform="translate(60.658203 0)"/>
     <use xlink:href="#DejaVuSans-6c" transform="translate(121.9375 0)"/>
     <use xlink:href="#DejaVuSans-69" transform="translate(149.720703 0)"/>
     <use xlink:href="#DejaVuSans-64" transform="translate(177.503906 0)"/>
     <use xlink:href="#DejaVuSans-61" transform="translate(240.980469 0)"/>
     <use xlink:href="#DejaVuSans-63" transform="translate(302.259766 0)"/>
     <use xlink:href="#DejaVuSans-69" transform="translate(357.240234 0)"/>
     <use xlink:href="#DejaVuSans-f3" transform="translate(385.023438 0)"/>
     <use xlink:href="#DejaVuSans-6e" transform="translate(446.205078 0)"/>
     <use xlink:href="#DejaVuSans-20" transform="translate(509.583984 0)"/>
     <use xlink:href="#DejaVuSans-64" transform="translate(541.371094 0)"/>
     <use xlink:href="#DejaVuSans-65" transform="translate(604.847656 0)"/>
     <use xlink:href="#DejaVuSans-20" transform="translate(666.371094 0)"/>
     <use xlink:href="#DejaVuSans-48" transform="translate(698.158203 0)"/>
     <use xlink:href="#DejaVuSans-2080" transform="translate(773.353516 0)"/>
     <use xlink:href="#DejaVuSans-3a" transform="translate(813.441406 0)"/>
    </g>
    <!--  -->
    <g transform="translate(773.9282 335.849166) scale(0.13 -0.13)"/>
   </g>
   <g id="text_24">
    <!-- Distribución exacta de Wilcoxon para WILCOXON-C2-NLA -->
    <g transform="translate(204.570156 23.307281) scale(0.15 -0.15)">
     <defs>
      <path id="DejaVuSans-75" d="M 544 1381 
L 544 3500 
L 1119 3500 
L 1119 1403 
Q 1119 906 1312 657 
Q 1506 409 1894 409 
Q 2359 409 2629 706 
Q 2900 1003 2900 1516 
L 2900 3500 
L 3475 3500 
L 3475 0 
L 2900 0 
L 2900 538 
Q 2691 219 2414 64 
Q 2138 -91 1772 -91 
Q 1169 -91 856 284 
Q 544 659 544 1381 
z
M 1991 3584 
L 1991 3584 
z
" transform="scale(0.015625)"/>
      <path id="DejaVuSans-78" d="M 3513 3500 
L 2247 1797 
L 3578 0 
L 2900 0 
L 1881 1375 
L 863 0 
L 184 0 
L 1544 1831 
L 300 3500 
L 978 3500 
L 1906 2253 
L 2834 3500 
L 3513 3500 
z
" transform="scale(0.015625)"/>
      <path id="DejaVuSans-49" d="M 628 4666 
L 1259 4666 
L 1259 0 
L 628 0 
L 628 4666 
z
" transform="scale(0.015625)"/>
      <path id="DejaVuSans-4c" d="M 628 4666 
L 1259 4666 
L 1259 531 
L 3531 531 
L 3531 0 
L 628 0 
L 628 4666 
z
" transform="scale(0.015625)"/>
      <path id="DejaVuSans-4f" d="M 2522 4238 
Q 1834 4238 1429 3725 
Q 1025 3213 1025 2328 
Q 1025 1447 1429 934 
Q 1834 422 2522 422 
Q 3209 422 3611 934 
Q 4013 1447 4013 2328 
Q 4013 3213 3611 3725 
Q 3209 4238 2522 4238 
z
M 2522 4750 
Q 3503 4750 4090 4092 
Q 4678 3434 4678 2328 
Q 4678 1225 4090 567 
Q 3503 -91 2522 -91 
Q 1538 -91 948 565 
Q 359 1222 359 2328 
Q 359 3434 948 4092 
Q 1538 4750 2522 4750 
z
" transform="scale(0.015625)"/>
      <path id="DejaVuSans-58" d="M 403 4666 
L 1081 4666 
L 2241 2931 
L 3406 4666 
L 4084 4666 
L 2584 2425 
L 4184 0 
L 3506 0 
L 2194 1984 
L 872 0 
L 191 0 
L 1856 2491 
L 403 4666 
z
" transform="scale(0.015625)"/>
      <path id="DejaVuSans-4e" d="M 628 4666 
L 1478 4666 
L 3547 763 
L 3547 4666 
L 4159 4666 
L 4159 0 
L 3309 0 
L 1241 3903 
L 1241 0 
L 628 0 
L 628 4666 
z
" transform="scale(0.015625)"/>
      <path id="DejaVuSans-2d" d="M 313 2009 
L 1997 2009 
L 1997 1497 
L 313 1497 
L 313 2009 
z
" transform="scale(0.015625)"/>
      <path id="DejaVuSans-41" d="M 2188 4044 
L 1331 1722 
L 3047 1722 
L 2188 4044 
z
M 1831 4666 
L 2547 4666 
L 4325 0 
L 3669 0 
L 3244 1197 
L 1141 1197 
L 716 0 
L 50 0 
L 1831 4666 
z
" transform="scale(0.015625)"/>
     </defs>
     <use xlink:href="#DejaVuSans-44"/>
     <use xlink:href="#DejaVuSans-69" transform="translate(77.001953 0)"/>
     <use xlink:href="#DejaVuSans-73" transform="translate(104.785156 0)"/>
     <use xlink:href="#DejaVuSans-74" transform="translate(156.884766 0)"/>
     <use xlink:href="#DejaVuSans-72" transform="translate(196.09375 0)"/>
     <use xlink:href="#DejaVuSans-69" transform="translate(237.207031 0)"/>
     <use xlink:href="#DejaVuSans-62" transform="translate(264.990234 0)"/>
     <use xlink:href="#DejaVuSans-75" transform="translate(328.466797 0)"/>
     <use xlink:href="#DejaVuSans-63" transform="translate(391.845703 0)"/>
     <use xlink:href="#DejaVuSans-69" transform="translate(446.826172 0)"/>
     <use xlink:href="#DejaVuSans-f3" transform="translate(474.609375 0)"/>
     <use xlink:href="#DejaVuSans-6e" transform="translate(535.791016 0)"/>
     <use xlink:href="#DejaVuSans-20" transform="translate(599.169922 0)"/>
     <use xlink:href="#DejaVuSans-65" transform="translate(630.957031 0)"/>
     <use xlink:href="#DejaVuSans-78" transform="translate(690.730469 0)"/>
     <use xlink:href="#DejaVuSans-61" transform="translate(749.910156 0)"/>
     <use xlink:href="#DejaVuSans-63" transform="translate(811.189453 0)"/>
     <use xlink:href="#DejaVuSans-74" transform="translate(866.169922 0)"/>
     <use xlink:href="#DejaVuSans-61" transform="translate(905.378906 0)"/>
     <use xlink:href="#DejaVuSans-20" transform="translate(966.658203 0)"/>
     <use xlink:href="#DejaVuSans-64" transform="translate(998.445312 0)"/>
     <use xlink:href="#DejaVuSans-65" transform="translate(1061.921875 0)"/>
     <use xlink:href="#DejaVuSans-20" transform="translate(1123.445312 0)"/>
     <use xlink:href="#DejaVuSans-57" transform="translate(1155.232422 0)"/>
     <use xlink:href="#DejaVuSans-69" transform="translate(1251.859375 0)"/>
     <use xlink:href="#DejaVuSans-6c" transform="translate(1279.642578 0)"/>
     <use xlink:href="#DejaVuSans-63" transform="translate(1307.425781 0)"/>
     <use xlink:href="#DejaVuSans-6f" transform="translate(1362.40625 0)"/>
     <use xlink:href="#DejaVuSans-78" transform="translate(1420.462891 0)"/>
     <use xlink:href="#DejaVuSans-6f" transform="translate(1476.517578 0)"/>
     <use xlink:href="#DejaVuSans-6e" transform="translate(1537.699219 0)"/>
     <use xlink:href="#DejaVuSans-20" transform="translate(1601.078125 0)"/>
     <use xlink:href="#DejaVuSans-70" transform="translate(1632.865234 0)"/>
     <use xlink:href="#DejaVuSans-61" transform="translate(1696.341797 0)"/>
     <use xlink:href="#DejaVuSans-72" transform="translate(1757.621094 0)"/>
     <use xlink:href="#DejaVuSans-61" transform="translate(1798.734375 0)"/>
     <use xlink:href="#DejaVuSans-20" transform="translate(1860.013672 0)"/>
     <use xlink:href="#DejaVuSans-57" transform="translate(1891.800781 0)"/>
     <use xlink:href="#DejaVuSans-49" transform="translate(1990.677734 0)"/>
     <use xlink:href="#DejaVuSans-4c" transform="translate(2020.169922 0)"/>
     <use xlink:href="#DejaVuSans-43" transform="translate(2075.882812 0)"/>
     <use xlink:href="#DejaVuSans-4f" transform="translate(2145.707031 0)"/>
     <use xlink:href="#DejaVuSans-58" transform="translate(2218.042969 0)"/>
     <use xlink:href="#DejaVuSans-4f" transform="translate(2280.173828 0)"/>
     <use xlink:href="#DejaVuSans-4e" transform="translate(2358.884766 0)"/>
     <use xlink:href="#DejaVuSans-2d" transform="translate(2433.689453 0)"/>
     <use xlink:href="#DejaVuSans-43" transform="translate(2469.773438 0)"/>
     <use xlink:href="#DejaVuSans-32" transform="translate(2539.597656 0)"/>
     <use xlink:href="#DejaVuSans-2d" transform="translate(2603.220703 0)"/>
     <use xlink:href="#DejaVuSans-4e" transform="translate(2639.304688 0)"/>
     <use xlink:href="#DejaVuSans-4c" transform="translate(2714.109375 0)"/>
     <use xlink:href="#DejaVuSans-41" transform="translate(2772.072266 0)"/>
    </g>
    <!-- Zonas de rechazo (dos colas) -->
    <g transform="translate(307.779531 40.104) scale(0.15 -0.15)">
     <defs>
      <path id="DejaVuSans-5a" d="M 359 4666 
L 4025 4666 
L 4025 4184 
L 1075 531 
L 4097 531 
L 4097 0 
L 288 0 
L 288 481 
L 3238 4134 
L 359 4134 
L 359 4666 
z
" transform="scale(0.015625)"/>
      <path id="DejaVuSans-68" d="M 3513 2113 
L 3513 0 
L 2938 0 
L 2938 2094 
Q 2938 2591 2744 2837 
Q 2550 3084 2163 3084 
Q 1697 3084 1428 2787 
Q 1159 2491 1159 1978 
L 1159 0 
L 581 0 
L 581 4863 
L 1159 4863 
L 1159 2956 
Q 1366 3272 1645 3428 
Q 1925 3584 2291 3584 
Q 2894 3584 3203 3211 
Q 3513 2838 3513 2113 
z
" transform="scale(0.015625)"/>
      <path id="DejaVuSans-28" d="M 1984 4856 
Q 1566 4138 1362 3434 
Q 1159 2731 1159 2009 
Q 1159 1288 1364 580 
Q 1569 -128 1984 -844 
L 1484 -844 
Q 1016 -109 783 600 
Q 550 1309 550 2009 
Q 550 2706 781 3412 
Q 1013 4119 1484 4856 
L 1984 4856 
z
" transform="scale(0.015625)"/>
      <path id="DejaVuSans-29" d="M 513 4856 
L 1013 4856 
Q 1481 4119 1714 3412 
Q 1947 2706 1947 2009 
Q 1947 1309 1714 600 
Q 1481 -109 1013 -844 
L 513 -844 
Q 928 -128 1133 580 
Q 1338 1288 1338 2009 
Q 1338 2731 1133 3434 
Q 928 4138 513 4856 
z
" transform="scale(0.015625)"/>
     </defs>
     <use xlink:href="#DejaVuSans-5a"/>
     <use xlink:href="#DejaVuSans-6f" transform="translate(68.505859 0)"/>
     <use xlink:href="#DejaVuSans-6e" transform="translate(129.6875 0)"/>
     <use xlink:href="#DejaVuSans-61" transform="translate(193.066406 0)"/>
     <use xlink:href="#DejaVuSans-73" transform="translate(254.345703 0)"/>
     <use xlink:href="#DejaVuSans-20" transform="translate(306.445312 0)"/>
     <use xlink:href="#DejaVuSans-64" transform="translate(338.232422 0)"/>
     <use xlink:href="#DejaVuSans-65" transform="translate(401.708984 0)"/>
     <use xlink:href="#DejaVuSans-20" transform="translate(463.232422 0)"/>
     <use xlink:href="#DejaVuSans-72" transform="translate(495.019531 0)"/>
     <use xlink:href="#DejaVuSans-65" transform="translate(533.882812 0)"/>
     <use xlink:href="#DejaVuSans-63" transform="translate(595.40625 0)"/>
     <use xlink:href="#DejaVuSans-68" transform="translate(650.386719 0)"/>
     <use xlink:href="#DejaVuSans-61" transform="translate(713.765625 0)"/>
     <use xlink:href="#DejaVuSans-7a" transform="translate(775.044922 0)"/>
     <use xlink:href="#DejaVuSans-6f" transform="translate(827.535156 0)"/>
     <use xlink:href="#DejaVuSans-20" transform="translate(888.716797 0)"/>
     <use xlink:href="#DejaVuSans-28" transform="translate(920.503906 0)"/>
     <use xlink:href="#DejaVuSans-64" transform="translate(959.517578 0)"/>
     <use xlink:href="#DejaVuSans-6f" transform="translate(1022.994141 0)"/>
     <use xlink:href="#DejaVuSans-73" transform="translate(1084.175781 0)"/>
     <use xlink:href="#DejaVuSans-20" transform="translate(1136.275391 0)"/>
     <use xlink:href="#DejaVuSans-63" transform="translate(1168.0625 0)"/>
     <use xlink:href="#DejaVuSans-6f" transform="translate(1223.042969 0)"/>
     <use xlink:href="#DejaVuSans-6c" transform="translate(1284.224609 0)"/>
     <use xlink:href="#DejaVuSans-61" transform="translate(1312.007812 0)"/>
     <use xlink:href="#DejaVuSans-73" transform="translate(1373.287109 0)"/>
     <use xlink:href="#DejaVuSans-29" transform="translate(1425.386719 0)"/>
    </g>
   </g>
   <g id="legend_1">
    <g id="patch_51">
     <path d="M 216.877969 69.182125 
L 618.342031 69.182125 
Q 620.342031 69.182125 620.342031 67.182125 
L 620.342031 53.104 
Q 620.342031 51.104 618.342031 51.104 
L 216.877969 51.104 
Q 214.877969 51.104 214.877969 53.104 
L 214.877969 67.182125 
Q 214.877969 69.182125 216.877969 69.182125 
z
" style="fill: #ffffff; opacity: 0.8; stroke: #cccccc; stroke-linejoin: miter"/>
    </g>
    <g id="patch_52">
     <path d="M 218.877969 63.102438 
L 238.877969 63.102438 
L 238.877969 56.102438 
L 218.877969 56.102438 
z
" style="fill: #90ee90"/>
    </g>
    <g id="text_25">
     <!-- Zona de aceptación -->
     <g transform="translate(246.877969 63.102438) scale(0.1 -0.1)">
      <use xlink:href="#DejaVuSans-5a"/>
      <use xlink:href="#DejaVuSans-6f" transform="translate(68.505859 0)"/>
      <use xlink:href="#DejaVuSans-6e" transform="translate(129.6875 0)"/>
      <use xlink:href="#DejaVuSans-61" transform="translate(193.066406 0)"/>
      <use xlink:href="#DejaVuSans-20" transform="translate(254.345703 0)"/>
      <use xlink:href="#DejaVuSans-64" transform="translate(286.132812 0)"/>
      <use xlink:href="#DejaVuSans-65" transform="translate(349.609375 0)"/>
      <use xlink:href="#DejaVuSans-20" transform="translate(411.132812 0)"/>
      <use xlink:href="#DejaVuSans-61" transform="translate(442.919922 0)"/>
      <use xlink:href="#DejaVuSans-63" transform="translate(504.199219 0)"/>
      <use xlink:href="#DejaVuSans-65" transform="translate(559.179688 0)"/>
      <use xlink:href="#DejaVuSans-70" transform="translate(620.703125 0)"/>
      <use xlink:href="#DejaVuSans-74" transform="translate(684.179688 0)"/>
      <use xlink:href="#DejaVuSans-61" transform="translate(723.388672 0)"/>
      <use xlink:href="#DejaVuSans-63" transform="translate(784.667969 0)"/>
      <use xlink:href="#DejaVuSans-69" transform="translate(839.648438 0)"/>
      <use xlink:href="#DejaVuSans-f3" transform="translate(867.431641 0)"/>
      <use xlink:href="#DejaVuSans-6e" transform="translate(928.613281 0)"/>
     </g>
    </g>
    <g id="patch_53">
     <path d="M 366.079531 63.102438 
L 386.079531 63.102438 
L 386.079531 56.102438 
L 366.079531 56.102438 
z
" style="fill: #fa8072"/>
    </g>
    <g id="text_26">
     <!-- Rechazo (W ≤ 5) -->
     <g transform="translate(394.079531 63.102438) scale(0.1 -0.1)">
      <defs>
       <path id="DejaVuSans-52" d="M 2841 2188 
Q 3044 2119 3236 1894 
Q 3428 1669 3622 1275 
L 4263 0 
L 3584 0 
L 2988 1197 
Q 2756 1666 2539 1819 
Q 2322 1972 1947 1972 
L 1259 1972 
L 1259 0 
L 628 0 
L 628 4666 
L 2053 4666 
Q 2853 4666 3247 4331 
Q 3641 3997 3641 3322 
Q 3641 2881 3436 2590 
Q 3231 2300 2841 2188 
z
M 1259 4147 
L 1259 2491 
L 2053 2491 
Q 2509 2491 2742 2702 
Q 2975 2913 2975 3322 
Q 2975 3731 2742 3939 
Q 2509 4147 2053 4147 
L 1259 4147 
z
" transform="scale(0.015625)"/>
       <path id="DejaVuSans-2264" d="M 4684 3175 
L 1684 2309 
L 4684 1453 
L 4684 897 
L 678 2047 
L 678 2578 
L 4684 3725 
L 4684 3175 
z
M 678 531 
L 4684 531 
L 4684 0 
L 678 0 
L 678 531 
z
" transform="scale(0.015625)"/>
      </defs>
      <use xlink:href="#DejaVuSans-52"/>
      <use xlink:href="#DejaVuSans-65" transform="translate(64.982422 0)"/>
      <use xlink:href="#DejaVuSans-63" transform="translate(126.505859 0)"/>
      <use xlink:href="#DejaVuSans-68" transform="translate(181.486328 0)"/>
      <use xlink:href="#DejaVuSans-61" transform="translate(244.865234 0)"/>
      <use xlink:href="#DejaVuSans-7a" transform="translate(306.144531 0)"/>
      <use xlink:href="#DejaVuSans-6f" transform="translate(358.634766 0)"/>
      <use xlink:href="#DejaVuSans-20" transform="translate(419.816406 0)"/>
      <use xlink:href="#DejaVuSans-28" transform="translate(451.603516 0)"/>
      <use xlink:href="#DejaVuSans-57" transform="translate(490.617188 0)"/>
      <use xlink:href="#DejaVuSans-20" transform="translate(589.494141 0)"/>
      <use xlink:href="#DejaVuSans-2264" transform="translate(621.28125 0)"/>
      <use xlink:href="#DejaVuSans-20" transform="translate(705.070312 0)"/>
      <use xlink:href="#DejaVuSans-35" transform="translate(736.857422 0)"/>
      <use xlink:href="#DejaVuSans-29" transform="translate(800.480469 0)"/>
     </g>
    </g>
    <g id="patch_54">
     <path d="M 498.029531 63.102438 
L 518.029531 63.102438 
L 518.029531 56.102438 
L 498.029531 56.102438 
z
" style="fill: #fa8072"/>
    </g>
    <g id="text_27">
     <!-- Rechazo (W ≥ 31) -->
     <g transform="translate(526.029531 63.102438) scale(0.1 -0.1)">
      <defs>
       <path id="DejaVuSans-2265" d="M 678 3175 
L 678 3725 
L 4684 2578 
L 4684 2047 
L 678 897 
L 678 1453 
L 3681 2309 
L 678 3175 
z
M 4684 531 
L 4684 0 
L 678 0 
L 678 531 
L 4684 531 
z
" transform="scale(0.015625)"/>
      </defs>
      <use xlink:href="#DejaVuSans-52"/>
      <use xlink:href="#DejaVuSans-65" transform="translate(64.982422 0)"/>
      <use xlink:href="#DejaVuSans-63" transform="translate(126.505859 0)"/>
      <use xlink:href="#DejaVuSans-68" transform="translate(181.486328 0)"/>
      <use xlink:href="#DejaVuSans-61" transform="translate(244.865234 0)"/>
      <use xlink:href="#DejaVuSans-7a" transform="translate(306.144531 0)"/>
      <use xlink:href="#DejaVuSans-6f" transform="translate(358.634766 0)"/>
      <use xlink:href="#DejaVuSans-20" transform="translate(419.816406 0)"/>
      <use xlink:href="#DejaVuSans-28" transform="translate(451.603516 0)"/>
      <use xlink:href="#DejaVuSans-57" transform="translate(490.617188 0)"/>
      <use xlink:href="#DejaVuSans-20" transform="translate(589.494141 0)"/>
      <use xlink:href="#DejaVuSans-2265" transform="translate(621.28125 0)"/>
      <use xlink:href="#DejaVuSans-20" transform="translate(705.070312 0)"/>
      <use xlink:href="#DejaVuSans-33" transform="translate(736.857422 0)"/>
      <use xlink:href="#DejaVuSans-31" transform="translate(800.480469 0)"/>
      <use xlink:href="#DejaVuSans-29" transform="translate(864.103516 0)"/>
     </g>
    </g>
   </g>
  </g>
 </g>
 <defs>
  <clipPath id="p6e93564274">
   <rect x="54.02" y="46.104" width="727.18" height="307.8408"/>
  </clipPath>
 </defs>
</svg>
